<svg width="174" height="24" viewBox="0 0 174 24" fill="none" xmlns="http://www.w3.org/2000/svg">
  <path fill-rule="evenodd" clip-rule="evenodd" d="M0 24V0H60V24H0ZM14.0956 7.24571L21.066 19.7486H23.9492L15.018 4.22286H13.1566L4.1646 19.7486H7.00911L14.0956 7.24571ZM40.6518 19.7486H27.1141V4.22286H29.6879V17.4571H40.6518V19.7486ZM48.9865 6.52H55.8796V4.23429H39.3482V6.52H46.4347V19.7486H48.9865V6.52Z" fill="#98A5AE"/>
  <path fill-rule="evenodd" clip-rule="evenodd" d="M67.3623 19.7329C68.0187 19.9242 68.7022 20.0137 69.3875 19.9983H78.6125C79.2977 20.0129 79.9811 19.9233 80.6377 19.7329C81.1417 19.5845 81.6055 19.3295 81.9955 18.9864C82.3415 18.6699 82.6037 18.2773 82.76 17.8417C82.9257 17.3682 83.0067 16.8708 82.9996 16.3709V8.62936C83.006 8.12946 82.925 7.63212 82.76 7.15847C82.6037 6.72454 82.3414 6.33371 81.9955 6.01937C81.6055 5.67623 81.1417 5.42127 80.6377 5.27287C79.982 5.07768 79.2982 4.98619 78.6125 5.00191H69.3875C68.7018 4.98531 68.0178 5.07682 67.3623 5.27287C66.8583 5.42127 66.3945 5.67623 66.0045 6.01937C65.6559 6.33151 65.3931 6.72304 65.24 7.15847C65.075 7.63212 64.994 8.12946 65.0004 8.62936V16.3709C64.9933 16.8708 65.0743 17.3682 65.24 17.8417C65.394 18.2783 65.6566 18.6715 66.0045 18.9864C66.3945 19.3295 66.8583 19.5845 67.3623 19.7329ZM78.6068 7.19718C79.782 7.19718 80.3525 7.65614 80.3525 8.58512L80.3582 16.3709C80.3582 17.2943 79.7534 17.7588 78.6125 17.7588H69.3875C68.2123 17.7588 67.6418 17.2943 67.6418 16.3709V8.58512C67.6418 7.65614 68.2466 7.19718 69.3875 7.19718H78.6068Z" fill="#98A5AE"/>
  <path d="M102.743 19L88.2243 7.32352V19H86V4H88.2243L101.776 15.1465V4H104V19H102.743Z" fill="#98A5AE"/>
  <path fill-rule="evenodd" clip-rule="evenodd" d="M112.363 19.7329C113.02 19.9233 113.703 20.0129 114.389 19.9983H123.611C124.297 20.0137 124.98 19.9242 125.637 19.7329C126.142 19.5857 126.606 19.3306 126.995 18.9864C127.343 18.6715 127.606 18.2783 127.76 17.8417C127.926 17.3682 128.007 16.8708 128 16.3709V8.62936C128.006 8.12946 127.925 7.63212 127.76 7.15847C127.607 6.72304 127.344 6.33151 126.995 6.01937C126.606 5.67517 126.142 5.42007 125.637 5.27287C124.981 5.07682 124.297 4.98531 123.611 5.00191H114.389C113.703 4.98619 113.019 5.07768 112.363 5.27287C111.859 5.42127 111.395 5.67623 111.005 6.01937C110.659 6.33371 110.396 6.72454 110.24 7.15847C110.075 7.63212 109.994 8.12946 110 8.62936V16.3709C109.993 16.8708 110.074 17.3682 110.24 17.8417C110.396 18.2773 110.659 18.6699 111.005 18.9864C111.395 19.3295 111.859 19.5845 112.363 19.7329ZM123.611 7.19718C124.787 7.19718 125.357 7.65614 125.357 8.58512V16.3709C125.357 17.2943 124.752 17.7588 123.611 17.7588H114.389C113.213 17.7588 112.643 17.2943 112.643 16.3709V8.58512C112.643 7.65614 113.248 7.19718 114.389 7.19718H123.611Z" fill="#98A5AE"/>
  <path d="M149.574 19V8.51049L142.567 19H140.433L133.409 8.51049V19H131V4H133.426L141.61 16.2506L149.749 4H152V19H149.574Z" fill="#98A5AE"/>
  <path d="M162.75 19V12.9271L154 4H157.292L164.031 10.8623L170.77 4H174L165.328 12.9106V18.9834L162.75 19Z" fill="#98A5AE"/>
  </svg>
  