<svg width="101" height="55" viewBox="0 0 101 55" fill="none" xmlns="http://www.w3.org/2000/svg">
  <mask id="mask0_2033_24073" style="mask-type:alpha" maskUnits="userSpaceOnUse" x="0" y="0" width="101" height="40">
  <path fill-rule="evenodd" clip-rule="evenodd" d="M0 0.0234375H100.639V39.8497H0V0.0234375Z" fill="white"/>
  </mask>
  <g mask="url(#mask0_2033_24073)">
  <path fill-rule="evenodd" clip-rule="evenodd" d="M26.4151 7.96678C24.5049 4.18687 20.1934 0.0234375 13.6987 0.0234375C6.87666 0.0234375 1.3644 4.35119 1.3644 10.3772C1.3644 16.7319 5.67597 19.5805 11.3519 21.6622L13.8079 22.5387C18.0649 24.1274 20.0296 25.4969 20.0296 28.6195C20.0296 31.6873 17.3008 33.3307 13.9171 33.3307C9.44176 33.3307 6.87666 30.5916 5.51223 27.5239L0 30.4273C1.74643 35.7959 7.09495 39.8497 13.9171 39.8497C20.4117 39.8497 27.4521 35.9602 27.4521 28.5099C27.4521 23.0317 23.9046 19.4709 15.7727 16.5675L13.153 15.5814C9.87837 14.3762 8.45939 13.0067 8.45939 10.6511C8.45939 8.18592 10.6425 6.37811 13.6987 6.37811C16.9188 6.37811 19.1018 8.07635 21.1212 11.0893L26.4151 7.96678ZM58.015 0.680825H65.1646V39.028H59.7069L39.7864 13.7737V39.028H32.6369V0.680825H38.1491L58.015 25.9899V0.680825ZM100.421 0.680825L81.7559 32.8377H100.639V39.028H70.3494L89.0147 6.81636H71.3863V0.680825H100.421Z" fill="#98A5AE"/>
  </g>
  <mask id="mask1_2033_24073" style="mask-type:alpha" maskUnits="userSpaceOnUse" x="2" y="48" width="98" height="7">
  <path fill-rule="evenodd" clip-rule="evenodd" d="M2.01489 48.0232H99.4419V54.4618H2.01489V48.0232Z" fill="white"/>
  </mask>
  <g mask="url(#mask1_2033_24073)">
  <path fill-rule="evenodd" clip-rule="evenodd" d="M6.19477 53.0683C6.15563 53.0806 6.11359 53.0938 6.06953 53.1071C5.72114 53.2232 5.18894 53.3974 4.6567 53.4651C4.09544 53.5425 3.66965 53.4845 3.40837 53.2909C3.12774 53.0877 2.9826 52.6813 2.9826 52.1007V50.3879C2.9826 49.8072 3.12774 49.4008 3.40837 49.1976C3.66965 49.0041 4.09544 48.946 4.6567 49.0234C5.18894 49.0911 5.72114 49.2653 6.06953 49.3815C6.1135 49.3947 6.15548 49.4079 6.19455 49.4201C6.24145 49.4349 6.28416 49.4483 6.32113 49.4589L6.60176 48.5299C6.58318 48.5246 6.56386 48.5193 6.54382 48.5138C6.49081 48.4992 6.4327 48.4832 6.36951 48.4621C6.35539 48.4575 6.34101 48.4529 6.32638 48.4481C5.94 48.3224 5.37921 48.14 4.78249 48.0654C3.95995 47.9493 3.31161 48.0751 2.83743 48.4138C2.28585 48.8105 2.01489 49.4782 2.01489 50.3879V52.1007C2.01489 53.0103 2.28585 53.678 2.83743 54.0748C3.19547 54.336 3.65997 54.4619 4.23091 54.4619C4.4051 54.4619 4.58894 54.4521 4.78249 54.4231C5.37992 54.3484 5.94133 54.1657 6.32775 54.04C6.34191 54.0354 6.35583 54.0308 6.36951 54.0264C6.43274 54.0053 6.49088 53.9893 6.54392 53.9747C6.56393 53.9692 6.58321 53.9639 6.60176 53.9586L6.32113 53.0296C6.28422 53.0402 6.24158 53.0536 6.19477 53.0683ZM34.6162 53.0682C34.577 53.0805 34.5348 53.0938 34.4906 53.1071C34.1422 53.2232 33.61 53.3974 33.0777 53.4651C32.5165 53.5425 32.0907 53.4845 31.8294 53.2909C31.5488 53.0877 31.4036 52.6813 31.4036 52.1007V50.3879C31.4036 49.8072 31.5488 49.4008 31.8294 49.1976C32.0907 49.0041 32.5165 48.946 33.0777 49.0234C33.61 49.0911 34.1422 49.2653 34.4906 49.3815C34.5347 49.3947 34.5768 49.4079 34.616 49.4203C34.6628 49.435 34.7053 49.4483 34.7422 49.4589L35.0228 48.5299C35.0042 48.5246 34.9849 48.5193 34.9649 48.5138C34.9119 48.4992 34.8538 48.4832 34.7905 48.4621L34.7476 48.4481C34.3612 48.3224 33.8003 48.14 33.2036 48.0654C32.381 47.9493 31.7326 48.0751 31.2585 48.4138C30.7069 48.8105 30.436 49.4782 30.436 50.3879V52.1007C30.436 53.0103 30.7069 53.678 31.2585 54.0748C31.6165 54.336 32.081 54.4619 32.652 54.4619C32.8261 54.4619 33.01 54.4521 33.2036 54.4231C33.8011 54.3484 34.3625 54.1657 34.7489 54.0399L34.7905 54.0264C34.8538 54.0053 34.912 53.9893 34.965 53.9747L34.9651 53.9747C34.9851 53.9692 35.0043 53.9639 35.0228 53.9586L34.7422 53.0296C34.7054 53.0401 34.6629 53.0535 34.6163 53.0682L34.6162 53.0682ZM52.8186 48.9847C53.2637 49.5363 53.496 50.3007 53.496 51.2588C53.496 52.2168 53.2637 52.9813 52.8186 53.5328C52.5767 53.8328 52.267 54.0554 51.909 54.2102C51.5509 54.3651 51.1445 54.4425 50.6897 54.4425C50.2349 54.4425 49.8284 54.3651 49.4704 54.2102C49.1124 54.0554 48.8027 53.8328 48.5608 53.5328C48.1156 52.9813 47.8834 52.2168 47.8834 51.2588C47.8834 50.3007 48.1156 49.5363 48.5608 48.9847C48.8027 48.6847 49.1124 48.4524 49.4704 48.2976C49.8284 48.1428 50.2349 48.0654 50.6897 48.0654C51.1445 48.0654 51.5509 48.1428 51.909 48.2976C52.267 48.4524 52.5767 48.6847 52.8186 48.9847ZM79.9429 48.9847C80.3881 49.5363 80.6203 50.3007 80.6203 51.2588C80.6203 52.2168 80.3881 52.9813 79.9429 53.5328C79.701 53.8328 79.3914 54.0554 79.0333 54.2102C78.6753 54.3651 78.2688 54.4425 77.814 54.4425C77.3592 54.4425 76.9528 54.3651 76.5947 54.2102C76.2367 54.0554 75.927 53.8328 75.6851 53.5328C75.24 52.9813 75.0077 52.2168 75.0077 51.2588C75.0077 50.3007 75.24 49.5363 75.6851 48.9847C75.927 48.6847 76.2367 48.4524 76.5947 48.2976C76.9528 48.1428 77.3592 48.0654 77.814 48.0654C78.2688 48.0654 78.6753 48.1428 79.0333 48.2976C79.3914 48.4524 79.701 48.6847 79.9429 48.9847ZM93.7325 53.378H91.1101V51.5297H93.3358V50.562H91.1101V49.1298H93.51V48.1621H90.1424V54.3457H93.7325V53.378ZM98.3968 54.3554C98.3581 53.4845 97.8065 52.9426 97.013 52.2845H95.6776V54.3554H94.7099V48.1718H95.3776H95.6776H97.3614C97.6323 48.1718 97.8839 48.2202 98.1355 48.3073C98.3775 48.4041 98.6097 48.5492 98.7936 48.7234C99.2097 49.1105 99.4419 49.6427 99.4419 50.2233C99.4419 50.8136 99.2097 51.3459 98.7936 51.7233C98.6387 51.8781 98.4549 51.9942 98.2613 52.091C98.4258 52.2555 98.5807 52.42 98.7258 52.6135C99.1323 53.1361 99.3355 53.6974 99.3645 54.3167V54.3554H98.3968ZM95.6776 51.3168H97.3614C97.9033 51.3168 98.4742 50.9297 98.4742 50.2233C98.4742 49.5169 97.9033 49.1395 97.3614 49.1395H95.6776V51.3168ZM88.0812 48.1718H89.0586C89.107 48.946 89.0296 49.7202 88.836 50.5233C88.6038 51.4427 88.2554 52.2361 87.9458 52.9329L87.8762 53.0948C87.6717 53.5698 87.4909 53.9899 87.4038 54.3554H86.0974C86.0148 53.988 85.8799 53.5596 85.7257 53.0703L85.7257 53.0702L85.7007 52.9909C85.5362 52.4684 85.362 51.8974 85.1975 51.2781C85.0445 51.8902 84.8664 52.4436 84.7021 52.954L84.7019 52.9547L84.7017 52.9551L84.6653 53.0683C84.6297 53.1816 84.5947 53.2913 84.5608 53.3975L84.5601 53.3997L84.5594 53.402L84.5593 53.4024C84.446 53.7571 84.345 54.0733 84.2782 54.3554H83.0008C82.8944 53.9489 82.6912 53.4748 82.4493 52.9329C82.1396 52.2361 81.7912 51.4427 81.5687 50.5233C81.3655 49.7202 81.288 48.946 81.3364 48.1718H82.3138C82.188 49.933 82.817 51.3652 83.3395 52.5458C83.4363 52.7684 83.5234 52.9716 83.6105 53.1845C83.6393 53.0836 83.6735 52.9827 83.7091 52.8778L83.7092 52.8774L83.7096 52.8762L83.7292 52.8183L83.746 52.7684C84.1524 51.5103 84.6459 49.9717 84.704 48.1718H85.6814C85.7387 49.8543 86.221 51.3952 86.6152 52.6544L86.6297 52.7006C86.6618 52.8161 86.6981 52.9273 86.733 53.0343L86.7331 53.0345C86.7509 53.0888 86.7682 53.142 86.7845 53.1941L86.7853 53.1923L86.7853 53.1922L86.7853 53.1922C86.8722 52.98 86.959 52.7677 87.0651 52.5458L87.0923 52.4833L87.0923 52.4832C87.6003 51.3147 88.2143 49.902 88.0812 48.1718ZM79.6526 51.2588C79.6526 51.9749 79.4978 52.5555 79.1978 52.9232C78.8978 53.2909 78.4334 53.4748 77.814 53.4748C77.2044 53.4748 76.7399 53.2909 76.4399 52.9232C76.1399 52.5555 75.9754 51.9749 75.9754 51.2588C75.9754 50.533 76.1399 49.9621 76.4399 49.5944C76.7399 49.2266 77.2044 49.0331 77.814 49.0331C78.4334 49.0331 78.8978 49.2266 79.1978 49.5944C79.4978 49.9621 79.6526 50.533 79.6526 51.2588ZM73.3723 50.2233C73.3723 50.9394 72.7918 51.3168 72.2595 51.3168H70.5757V49.1298H72.2595C72.7918 49.1298 73.3723 49.5072 73.3723 50.2233ZM73.6917 48.7234C74.1078 49.1008 74.34 49.6427 74.34 50.2233C74.34 50.8136 74.1078 51.3459 73.6917 51.733C73.4981 51.9071 73.2756 52.0523 73.024 52.149C72.7821 52.2361 72.5208 52.2845 72.2595 52.2845H70.5757V54.3554H69.608V48.1621H72.2595C72.5208 48.1621 72.7821 48.2106 73.024 48.3073C73.2756 48.4041 73.4981 48.5396 73.6917 48.7234ZM61.7891 54.3554H62.7665L63.2987 49.2169L64.6438 54.3554H65.7663L67.1211 49.2169L67.6436 54.3554H68.621L67.9823 48.1621H66.3953L65.205 52.9329L64.0148 48.1621H62.4278L61.7891 54.3554ZM58.4022 53.378H61.0246V54.3457H57.4345V48.1621H60.802V49.1298H58.4022V50.562H60.6278V51.5297H58.4022V53.378ZM52.5283 51.2588C52.5283 51.9749 52.3735 52.5555 52.0735 52.9232C51.7735 53.2909 51.309 53.4748 50.6897 53.4748C50.0801 53.4748 49.6156 53.2909 49.3156 52.9232C49.0156 52.5555 48.8511 51.9749 48.8511 51.2588C48.8511 50.533 49.0156 49.9621 49.3156 49.5944C49.6156 49.2266 50.0801 49.0331 50.6897 49.0331C51.309 49.0331 51.7735 49.2266 52.0735 49.5944C52.3735 49.9621 52.5283 50.533 52.5283 51.2588ZM47.2447 49.1298V48.1621H43.2675V49.1298H44.7674V54.3554H45.7351V49.1298H47.2447ZM39.7451 48.1621V49.1298H38.2355V54.3554H37.2678V49.1298H35.7679V48.1621H39.7451ZM26.8845 53.378H29.507V54.3457H25.9169V48.1621H29.2844V49.1298H26.8845V50.562H29.1102V51.5297H26.8845V53.378ZM24.5814 48.1621H23.6138H23.6137V52.6523L20.9623 48.1621H20.4204H20.4107H19.8785V54.3554H20.8462V49.875L23.4976 54.3554H24.5814V48.1621ZM17.6624 48.1621H18.6301V54.3554H17.5463L14.8948 49.875V54.3554H13.9272V48.1621H14.4594H14.4691H15.011L17.6624 52.6523V48.1621ZM12.0015 51.2588C12.0015 51.9749 11.8466 52.5555 11.5466 52.9232C11.2467 53.2909 10.7822 53.4748 10.1628 53.4748C9.5532 53.4748 9.0887 53.2909 8.78871 52.9232C8.48873 52.5555 8.32425 51.9749 8.32425 51.2588C8.32425 50.533 8.48873 49.9621 8.78871 49.5944C9.0887 49.2266 9.5532 49.0331 10.1628 49.0331C10.7822 49.0331 11.2467 49.2266 11.5466 49.5944C11.8466 49.9621 12.0015 50.533 12.0015 51.2588ZM12.2918 48.9847C12.7369 49.5363 12.9692 50.3007 12.9692 51.2588C12.9692 52.2168 12.7369 52.9813 12.2918 53.5328C12.0498 53.8328 11.7402 54.0554 11.3821 54.2102C11.0241 54.3651 10.6177 54.4425 10.1628 54.4425C9.70804 54.4425 9.3016 54.3651 8.94356 54.2102C8.58549 54.0554 8.27583 53.8328 8.03394 53.5328C7.58879 52.9813 7.35654 52.2168 7.35654 51.2588C7.35654 50.3007 7.58879 49.5363 8.03394 48.9847C8.27583 48.6847 8.58549 48.4524 8.94356 48.2976C9.3016 48.1428 9.70804 48.0654 10.1628 48.0654C10.6177 48.0654 11.0241 48.1428 11.3821 48.2976C11.7402 48.4524 12.0498 48.6847 12.2918 48.9847Z" fill="#98A5AE"/>
  </g>
  </svg>
  