<svg width="163" height="52" viewBox="0 0 163 52" fill="none" xmlns="http://www.w3.org/2000/svg">
  <path fill-rule="evenodd" clip-rule="evenodd" d="M12.0002 3.14992C12.0002 3.78004 12.4001 4.20005 13.0002 4.20005H14V16.8002H13.0002C12.4001 16.8002 12.0002 17.22 12.0002 17.8501V18.9H11.0001C10.4001 18.9 10.0001 19.32 10.0001 19.9501V21H0V0H10.0001V1.0499C10.0001 1.68002 10.4001 2.10002 11.0001 2.10002H12.0002V3.14992ZM12.0002 15.7501V5.24994C12.0002 4.62005 11.6002 4.20005 11.0001 4.20005H10.0001V3.14992C10.0001 2.52003 9.60006 2.10002 9.00006 2.10002H3.00003C2.40001 2.10002 2.00002 2.52003 2.00002 3.14992V17.8501C2.00002 18.48 2.40001 18.9 3.00003 18.9H9.00006C9.60006 18.9 10.0001 18.48 10.0001 17.8501V16.8002H11.0001C11.6002 16.8002 12.0002 16.3802 12.0002 15.7501Z" fill="#98A5AE"/>
  <path d="M18 0V21H21V0H18Z" fill="#98A5AE"/>
  <path d="M36.0002 0V3.14992C36.0002 3.78004 35.6002 4.20005 35.0001 4.20005H34.0001V9.44999C34.0001 10.0801 33.6001 10.5001 33.0001 10.5001H32V15.7501C32 16.3802 31.6001 16.8002 31 16.8002C30.4002 16.8002 30 16.3802 30 15.7501V10.5001H28.9999C28.4001 10.5001 28.0001 10.0801 28.0001 9.44999V4.20005H27.0001C26.4 4.20005 26.0001 3.78004 26.0001 3.14992V0H24V4.20005H25C25.6001 4.20005 26.0001 4.62005 26.0001 5.24994V10.5001H27.0001C27.5999 10.5001 28.0001 10.9201 28.0001 11.55V16.8002H28.9999C29.6 16.8002 30 17.22 30 17.8501V21H32V17.8501C32 17.22 32.4 16.8002 33.0001 16.8002H34.0001V11.55C34.0001 10.9201 34.4001 10.5001 35.0001 10.5001H36.0002V5.24994C36.0002 4.62005 36.4001 4.20005 37.0002 4.20005H38V0H36.0002Z" fill="#98A5AE"/>
  <path d="M43.3334 7.34997V3.14992C43.3334 2.52003 43.8 2.10002 44.5001 2.10002H55V0H41V21H55V18.9H44.5001C43.8 18.9 43.3334 18.48 43.3334 17.8501V11.55C43.3334 10.9201 43.8 10.5001 44.5001 10.5001H52.6666V8.40009H44.5001C43.8 8.40009 43.3334 7.98009 43.3334 7.34997Z" fill="#98A5AE"/>
  <path fill-rule="evenodd" clip-rule="evenodd" d="M68.6666 1.0499C68.6666 1.68002 69.1332 2.10002 69.8333 2.10002H71V10.5001H69.8333C69.1332 10.5001 68.6666 10.9201 68.6666 11.55V12.6001H67.4999C66.7999 12.6001 66.3332 13.0201 66.3332 13.65C66.3332 14.2802 66.7999 14.7002 67.4999 14.7002H68.6666V17.8501C68.6666 18.48 69.1332 18.9 69.8333 18.9H71V21H68.6666V19.9501C68.6666 19.32 68.2 18.9 67.4999 18.9H66.3332V15.7501C66.3332 15.1202 65.8666 14.7002 65.1666 14.7002H63.9999V13.65C63.9999 13.0201 63.5332 12.6001 62.8332 12.6001H60.5001C59.8 12.6001 59.3334 13.0201 59.3334 13.65V21H57V0H68.6666V1.0499ZM68.6666 9.44999V3.14992C68.6666 2.52003 68.2 2.10002 67.4999 2.10002H60.5001C59.8 2.10002 59.3334 2.52003 59.3334 3.14992V9.44999C59.3334 10.0801 59.8 10.5001 60.5001 10.5001H67.4999C68.2 10.5001 68.6666 10.0801 68.6666 9.44999Z" fill="#98A5AE"/>
  <path d="M92 6.30007V4.20005H90.9377C90.3001 4.20005 89.8752 3.78004 89.8752 3.14992V2.10002H88.8126C88.1751 2.10002 87.7501 1.68002 87.7501 1.0499V0H79.2501V1.0499C79.2501 1.68002 78.8251 2.10002 78.1876 2.10002H77.1251V3.14992C77.1251 3.78004 76.7001 4.20005 76.0625 4.20005H75V16.8002H76.0625C76.7001 16.8002 77.1251 17.22 77.1251 17.8501V18.9H78.1876C78.8251 18.9 79.2501 19.32 79.2501 19.9501V21H87.7501V19.9501C87.7501 19.32 88.1751 18.9 88.8126 18.9C89.45 18.9 89.8752 19.32 89.8752 19.9501V21H92V10.5001H83.5V12.6001H88.8126C89.45 12.6001 89.8752 13.0201 89.8752 13.65V15.7501C89.8752 16.3802 89.45 16.8002 88.8126 16.8002H87.7501V17.8501C87.7501 18.48 87.3251 18.9 86.6876 18.9H80.3126C79.6751 18.9 79.2501 18.48 79.2501 17.8501V16.8002H78.1876C77.55 16.8002 77.1251 16.3802 77.1251 15.7501V5.24994C77.1251 4.62005 77.55 4.20005 78.1876 4.20005H79.2501V3.14992C79.2501 2.52003 79.6751 2.10002 80.3126 2.10002H86.6876C87.3251 2.10002 87.7501 2.52003 87.7501 3.14992V4.20005H88.8126C89.45 4.20005 89.8752 4.62005 89.8752 5.24994V6.30007H92Z" fill="#98A5AE"/>
  <path d="M96.3332 7.34997V3.14992C96.3332 2.52003 96.8001 2.10002 97.4999 2.10002H108V0H94V21H108V18.9H97.4999C96.8001 18.9 96.3332 18.48 96.3332 17.8501V11.55C96.3332 10.9201 96.8001 10.5001 97.4999 10.5001H105.667V8.40009H97.4999C96.8001 8.40009 96.3332 7.98009 96.3332 7.34997Z" fill="#98A5AE"/>
  <path d="M125 0V13.65C125 14.2802 124.6 14.7002 124 14.7002C123.4 14.7002 123 14.2802 123 13.65V12.6001H122C121.4 12.6001 121 12.1801 121 11.55V8.40009H120C119.4 8.40009 119 7.98009 119 7.34997V6.30007H118C117.4 6.30007 117 5.88006 117 5.24994V2.10002H116C115.4 2.10002 115 1.68002 115 1.0499V0H113V21H115V7.34997C115 6.72007 115.4 6.30007 116 6.30007C116.6 6.30007 117 6.72007 117 7.34997V8.40009H118C118.6 8.40009 119 8.8201 119 9.44999V12.6001H120C120.6 12.6001 121 13.0201 121 13.65V14.7002H122C122.6 14.7002 123 15.1202 123 15.7501V18.9H124C124.6 18.9 125 19.32 125 19.9501V21H127V0H125Z" fill="#98A5AE"/>
  <path d="M146 6.30007V4.20005H144.937C144.3 4.20005 143.875 3.78004 143.875 3.14992V2.10002H142.812C142.175 2.10002 141.75 1.68002 141.75 1.0499V0H133.25V1.0499C133.25 1.68002 132.825 2.10002 132.187 2.10002H131.125V3.14992C131.125 3.78004 130.7 4.20005 130.063 4.20005H129V16.8002H130.063C130.7 16.8002 131.125 17.22 131.125 17.8501V18.9H132.187C132.825 18.9 133.25 19.32 133.25 19.9501V21H141.75V19.9501C141.75 19.32 142.175 18.9 142.812 18.9H143.875V17.8501C143.875 17.22 144.3 16.8002 144.937 16.8002H146V14.7002H143.875V15.7501C143.875 16.3802 143.45 16.8002 142.812 16.8002H141.75V17.8501C141.75 18.48 141.325 18.9 140.688 18.9H134.312C133.675 18.9 133.25 18.48 133.25 17.8501V16.8002H132.187C131.55 16.8002 131.125 16.3802 131.125 15.7501V5.24994C131.125 4.62005 131.55 4.20005 132.187 4.20005H133.25V3.14992C133.25 2.52003 133.675 2.10002 134.312 2.10002H140.688C141.325 2.10002 141.75 2.52003 141.75 3.14992V4.20005H142.812C143.45 4.20005 143.875 4.62005 143.875 5.24994V6.30007H146Z" fill="#98A5AE"/>
  <path d="M151.333 7.34997V3.14992C151.333 2.52003 151.8 2.10002 152.5 2.10002H163V0H149V21H163V18.9H152.5C151.8 18.9 151.333 18.48 151.333 17.8501V11.55C151.333 10.9201 151.8 10.5001 152.5 10.5001H160.667V8.40009H152.5C151.8 8.40009 151.333 7.98009 151.333 7.34997Z" fill="#98A5AE"/>
  <path d="M19 29L11.1334 50H8.46668L0 29H2.66668L9.76668 46.5799L16.3334 29H19Z" fill="#98A5AE"/>
  <path fill-rule="evenodd" clip-rule="evenodd" d="M26.1592 47.7068C25.4572 48.3282 24.4661 48.6389 23.1859 48.6389C21.8023 48.6389 20.6874 48.2039 19.8408 47.3339C19.0147 46.4434 18.5604 45.1282 18.478 43.3884H30C30 40.468 29.37 38.345 28.1105 37.0193C26.8715 35.6732 25.23 35 23.1859 35C21.8642 35 20.6563 35.352 19.5619 36.0564C18.4676 36.7398 17.6004 37.6925 16.9603 38.9145C16.3202 40.1159 16 41.4518 16 42.9223C16 44.5793 16.3098 46.0186 16.9292 47.2407C17.5693 48.4627 18.4262 49.3948 19.4999 50.0368C20.5944 50.6789 21.823 51 23.1859 51C24.3834 51 25.4779 50.7411 26.469 50.2232C27.4808 49.6848 28.2963 48.9805 28.9159 48.1107C29.5353 47.2407 29.8967 46.3293 30 45.3766H27.522C27.3363 46.288 26.8819 47.0648 26.1592 47.7068ZM20.2745 38.4795C21.0796 37.8168 22.0502 37.4855 23.1859 37.4855C24.5073 37.4855 25.5087 37.8066 26.1903 38.4486C26.8715 39.0907 27.3155 40.0123 27.522 41.2136H18.6637C18.9528 40.0536 19.4896 39.1425 20.2745 38.4795Z" fill="#98A5AE"/>
  <path d="M47 51H44.346L44.3128 42.7623C44.3128 40.967 44.0472 39.6468 43.5165 38.802C42.9857 37.9572 42.0789 37.5347 40.7962 37.5347C39.2479 37.5347 37.9983 38.0311 37.0474 39.0238C36.1184 40.0165 35.654 41.4739 35.654 43.396V51H33V35.1585H35.654V37.8515C36.2732 36.8799 37.0585 36.1616 38.0094 35.6969C38.9605 35.2325 39.9999 35 41.128 35C43.2734 35 44.7772 35.6548 45.6399 36.9643C46.5244 38.274 46.9667 40.2066 46.9667 42.7623L47 51Z" fill="#98A5AE"/>
  <path d="M52.0384 36.6064V46.7294C52.0384 47.1447 52.0924 47.4147 52.2 47.5394C52.3077 47.6431 52.5232 47.695 52.8461 47.695H55V50H52.8461C51.9307 50 51.2667 49.9168 50.854 49.7507C50.459 49.5639 50.1988 49.2419 50.0731 48.7853C49.9475 48.3284 49.8846 47.5911 49.8846 46.5737V36.6064H48V34.4263H49.8846V31H52.0384V34.4263H55V36.6064H52.0384Z" fill="#98A5AE"/>
  <path d="M70 35V50.7177H67.346V48.4902C66.3064 50.1635 64.7029 51 62.5354 51C60.3459 51 58.7092 50.3099 57.6254 48.9294C56.5638 47.5281 56.033 45.6039 56.033 43.1567L56 35H58.654L58.6872 43.1882C58.6872 44.9033 59.0521 46.2208 59.7819 47.1411C60.5118 48.0406 61.5401 48.4902 62.8672 48.4902C65.853 48.4902 67.346 46.5137 67.346 42.5607V35H70Z" fill="#98A5AE"/>
  <path d="M75.1133 37.848C76.0993 35.9492 77.7283 35 80 35V37.5598C78.4679 37.5598 77.2704 38.0399 76.4074 38.9999C75.5447 39.9387 75.1133 41.3786 75.1133 43.3199V51H73V35H75.1133V37.848Z" fill="#98A5AE"/>
  <path fill-rule="evenodd" clip-rule="evenodd" d="M92.1593 47.7068C91.4573 48.3282 90.466 48.6389 89.1857 48.6389C87.8024 48.6389 86.6872 48.2039 85.8407 47.3339C85.0148 46.4434 84.5604 45.1282 84.4778 43.3884H96C96 40.468 95.3702 38.345 94.1105 37.0193C92.8717 35.6732 91.2301 35 89.1857 35C87.8643 35 86.6564 35.352 85.5619 36.0564C84.4674 36.7398 83.6002 37.6925 82.96 38.9145C82.3199 40.1159 82 41.4518 82 42.9223C82 44.5793 82.3096 46.0186 82.9292 47.2407C83.5693 48.4627 84.4262 49.3948 85.5 50.0368C86.5945 50.6789 87.8229 51 89.1857 51C90.3836 51 91.4778 50.7411 92.4689 50.2232C93.4808 49.6848 94.2965 48.9805 94.9159 48.1107C95.5353 47.2407 95.8967 46.3293 96 45.3766H93.5222C93.3362 46.288 92.8821 47.0648 92.1593 47.7068ZM86.2743 38.4795C87.0797 37.8168 88.0501 37.4855 89.1857 37.4855C90.5074 37.4855 91.5089 37.8066 92.1902 38.4486C92.8717 39.0907 93.3157 40.0123 93.5222 41.2136H84.6638C84.9527 40.0536 85.4896 39.1425 86.2743 38.4795Z" fill="#98A5AE"/>
  <path d="M97 46.4422C97.1436 48.4038 97.7898 49.8206 98.9385 50.6923C100.087 51.564 101.492 52 103.154 52C104.938 52 106.354 51.6295 107.4 50.8884C108.467 50.1475 109 48.9378 109 47.2597C109 45.8864 108.59 44.7858 107.769 43.9576C106.949 43.1077 105.615 42.5626 103.769 42.323C101 41.9961 99.6153 41.1896 99.6153 39.9037C99.6153 38.9229 99.964 38.2473 100.661 37.8768C101.379 37.4846 102.21 37.2882 103.154 37.2882C104.159 37.2882 104.959 37.5827 105.554 38.171C106.149 38.7595 106.528 39.5005 106.692 40.3942H109C108.856 38.6287 108.261 37.2882 107.215 36.373C106.19 35.4575 104.836 35 103.154 35C101.636 35 100.282 35.3705 99.0924 36.1114C97.9025 36.8525 97.3078 38.1167 97.3078 39.9037C97.3078 41.2769 97.7077 42.323 98.5077 43.0421C99.3282 43.7615 100.569 44.2193 102.231 44.4154C103.872 44.655 105.021 45.0147 105.677 45.4942C106.354 45.952 106.692 46.5403 106.692 47.2597C106.692 48.1967 106.405 48.8398 105.831 49.1885C105.256 49.5372 104.364 49.7115 103.154 49.7115C100.959 49.7115 99.7283 48.6217 99.4615 46.4422H97Z" fill="#98A5AE"/>
  </svg>
  