
<svg width="40" height="35" viewBox="0 0 40 35" fill="none" xmlns="http://www.w3.org/2000/svg">
  <ellipse opacity="0.8" rx="6.02287" ry="6.00257" transform="matrix(1 0 0 -1 6.02287 6.44055)" fill="url(#paint0_linear_2033_24188)"/>
  <ellipse opacity="0.8" cx="33.9772" cy="27.7406" rx="6.02287" ry="6.00257" fill="url(#paint1_linear_2033_24188)"/>
  <path fill-rule="evenodd" clip-rule="evenodd" d="M16.368 4.8894C15.8212 5.28886 15.8212 6.1049 16.368 6.50436L22.7949 11.1995C23.4557 11.6821 24.3848 11.2102 24.3848 10.392V7.50482H32.4857C33.2582 7.50482 34.0794 8.20356 34.0794 9.31318V20.006H38.0794V9.31318C38.0794 6.21621 35.6828 3.50482 32.4857 3.50482H24.3848V1.00179C24.3848 0.183525 23.4557 -0.288381 22.7949 0.194305L16.368 4.8894Z" fill="url(#paint2_linear_2033_24188)"/>
  <path fill-rule="evenodd" clip-rule="evenodd" d="M23.8347 29.062C24.3758 28.6623 24.3758 27.853 23.8347 27.4533L17.4153 22.7116C16.7552 22.224 15.8212 22.6952 15.8212 23.5159V26.4516H7.71273C6.93279 26.4516 6.11721 25.7512 6.11721 24.6548V13.9944H2.11721V24.6548C2.11721 27.7522 4.52116 30.4516 7.71273 30.4516H15.8212V32.9994C15.8212 33.8201 16.7552 34.2914 17.4153 33.8038L23.8347 29.062Z" fill="url(#paint3_linear_2033_24188)"/>
  <defs>
  <linearGradient id="paint0_linear_2033_24188" x1="12.621" y1="36.6157" x2="25.3981" y2="29.791" gradientUnits="userSpaceOnUse">
  <stop stop-color="#FF4C3B"/>
  <stop offset="1" stop-color="#E40C5B"/>
  </linearGradient>
  <linearGradient id="paint1_linear_2033_24188" x1="40.5754" y1="58.3537" x2="53.3525" y2="51.529" gradientUnits="userSpaceOnUse">
  <stop stop-color="#FF4C3B"/>
  <stop offset="1" stop-color="#E40C5B"/>
  </linearGradient>
  <linearGradient id="paint2_linear_2033_24188" x1="39.136" y1="61.0184" x2="61.5345" y2="47.8341" gradientUnits="userSpaceOnUse">
  <stop stop-color="#FF4C3B"/>
  <stop offset="1" stop-color="#E40C5B"/>
  </linearGradient>
  <linearGradient id="paint3_linear_2033_24188" x1="1.06057" y1="-27.0195" x2="-21.3392" y2="-13.8339" gradientUnits="userSpaceOnUse">
  <stop stop-color="#FF4C3B"/>
  <stop offset="1" stop-color="#E40C5B"/>
  </linearGradient>
  </defs>
  </svg>
  