<svg width="97" height="32" viewBox="0 0 97 32" fill="none" xmlns="http://www.w3.org/2000/svg">
<path d="M15.8896 18.0237C15.2403 18.0237 14.6089 18.0778 13.998 18.1813L14.9388 16.5519C15.2563 16.531 15.5743 16.5204 15.8896 16.5204C16.6283 16.5204 17.38 16.5814 18.1066 16.6979L14.4537 10.3709L8.37278 20.9034L7.50375 19.3982L14.4401 7.38417L14.4544 7.40893L14.468 7.38525L22.8388 21.8838H21.1007L19.1443 18.4952C18.125 18.1878 17.0352 18.0237 15.8896 18.0237Z" fill="url(#paint0_linear_905_17717)"/>
<path d="M23.3797 20.9288L15.2755 6.89186H17.0136L24.2488 19.4236L23.3797 20.9288Z" fill="url(#paint1_linear_905_17717)"/>
<path d="M15.3361 13.8171L12.0084 19.5809C13.1991 19.2217 14.6007 19.0613 15.923 19.0613C16.0299 19.0613 16.1371 19.0625 16.2444 19.0651C16.9957 19.0828 17.7546 19.1623 18.4817 19.2981L19.592 21.2211C18.4554 20.8077 17.2253 20.5645 15.923 20.5645C13.997 20.5645 12.2283 21.0409 10.6878 21.8696L10.712 21.8262L10.6788 21.8838H8.94074L14.4671 12.3119L15.3361 13.8171Z" fill="url(#paint2_linear_905_17717)"/>
<path fill-rule="evenodd" clip-rule="evenodd" d="M16 29.3878C23.3939 29.3878 29.3878 23.3939 29.3878 16C29.3878 8.60615 23.3939 2.61225 16 2.61225C8.60615 2.61225 2.61224 8.60615 2.61224 16C2.61224 23.3939 8.60615 29.3878 16 29.3878ZM16.0327 27.7551C22.5429 27.7551 27.8204 22.4775 27.8204 15.9673C27.8204 9.45715 22.5429 4.17959 16.0327 4.17959C9.52246 4.17959 4.2449 9.45715 4.2449 15.9673C4.2449 22.4775 9.52246 27.7551 16.0327 27.7551Z" fill="url(#paint3_linear_905_17717)"/>
<path fill-rule="evenodd" clip-rule="evenodd" d="M16 32C24.8366 32 32 24.8366 32 16C32 7.16344 24.8366 0 16 0C7.16344 0 0 7.16344 0 16C0 24.8366 7.16344 32 16 32ZM16.0653 30.498C24.0723 30.498 30.5633 24.007 30.5633 16C30.5633 7.993 24.0723 1.50204 16.0653 1.50204C8.0583 1.50204 1.56735 7.993 1.56735 16C1.56735 24.007 8.0583 30.498 16.0653 30.498Z" fill="url(#paint4_linear_905_17717)"/>
<path fill-rule="evenodd" clip-rule="evenodd" d="M41.1208 17.9741H45.0693L43.0852 12.1831L41.1208 17.9741ZM46.6765 22.7303L45.7836 20.1233H40.3867L39.4937 22.7303H36.5374L41.4382 8.79999H44.7519L49.6328 22.7303H46.6765Z" fill="url(#paint5_linear_905_17717)"/>
<path fill-rule="evenodd" clip-rule="evenodd" d="M53.1048 21.3373C52.0994 20.3026 51.5969 18.9294 51.5969 17.218C51.5969 15.5066 52.0994 14.1333 53.1048 13.0986C54.1101 12.0637 55.413 11.5464 57.0137 11.5464C58.3496 11.5464 59.4673 11.8715 60.367 12.5214C61.2664 13.1717 61.868 14.0936 62.1726 15.2876H59.1566C58.7994 14.3722 58.0851 13.9144 57.0137 13.9144C56.2066 13.9144 55.5753 14.2099 55.1188 14.8001C54.6624 15.3906 54.4343 16.1965 54.4343 17.218C54.4343 18.2397 54.6624 19.0457 55.1188 19.6358C55.5753 20.2263 56.2066 20.5214 57.0137 20.5214C58.0719 20.5214 58.7861 20.0571 59.1566 19.1284H62.1726C61.8552 20.2827 61.2431 21.198 60.3373 21.8747C59.431 22.5512 58.3233 22.8895 57.0137 22.8895C55.413 22.8895 54.1101 22.3722 53.1048 21.3373Z" fill="url(#paint6_linear_905_17717)"/>
<path fill-rule="evenodd" clip-rule="evenodd" d="M72.3004 19.596C72.8823 19.0189 73.1733 18.2264 73.1733 17.218C73.1733 16.2099 72.8823 15.417 72.3004 14.8398C71.7182 14.2628 71.0369 13.9742 70.2567 13.9742C69.476 13.9742 68.7984 14.2596 68.223 14.8299C67.6475 15.4005 67.3598 16.19 67.3598 17.1981C67.3598 18.2064 67.6507 19.0025 68.2329 19.5861C68.8148 20.17 69.4929 20.4617 70.2666 20.4617C71.0405 20.4617 71.7182 20.1732 72.3004 19.596ZM66.0006 21.2875C65.0151 20.2198 64.5224 18.8566 64.5224 17.1981C64.5224 15.5398 65.0116 14.1831 65.9908 13.1284C66.9695 12.0736 68.213 11.5463 69.7211 11.5463C71.229 11.5463 72.3797 12.17 73.1734 13.417V11.7055H75.9513V22.7303H73.1734V20.8796C72.3401 22.2198 71.1824 22.8895 69.7011 22.8895C68.2195 22.8895 66.9859 22.3556 66.0006 21.2875Z" fill="url(#paint7_linear_905_17717)"/>
<path fill-rule="evenodd" clip-rule="evenodd" d="M93.0657 19.596C93.6476 19.0189 93.9386 18.2264 93.9386 17.218C93.9386 16.2099 93.6476 15.417 93.0657 14.8398C92.4833 14.2628 91.8022 13.9742 91.0218 13.9742C90.2413 13.9742 89.5637 14.2596 88.9882 14.8299C88.4127 15.4005 88.1251 16.19 88.1251 17.1981C88.1251 18.2064 88.4158 19.0025 88.9982 19.5861C89.58 20.17 90.258 20.4617 91.0318 20.4617C91.8057 20.4617 92.4833 20.1732 93.0657 19.596ZM86.7659 21.2875C85.7804 20.2198 85.2878 18.8566 85.2878 17.1981C85.2878 15.5398 85.7768 14.1831 86.7561 13.1284C87.7346 12.0736 88.9782 11.5463 90.4862 11.5463C91.9941 11.5463 93.145 12.17 93.9387 13.417V11.7055H96.7164V22.7303H93.9387V20.8796C93.1054 22.2198 91.9477 22.8895 90.4664 22.8895C88.9848 22.8895 87.7512 22.3556 86.7659 21.2875Z" fill="url(#paint8_linear_905_17717)"/>
<path fill-rule="evenodd" clip-rule="evenodd" d="M79.4942 22.7302H82.292V8.82077H79.4942V22.7302Z" fill="url(#paint9_linear_905_17717)"/>
<defs>
<linearGradient id="paint0_linear_905_17717" x1="27.8857" y1="31.0531" x2="9.17551" y2="2.38368" gradientUnits="userSpaceOnUse">
<stop offset="0.0076157" stop-color="#645AFF"/>
<stop offset="0.484678" stop-color="#E40C5B"/>
<stop offset="1" stop-color="#FF4C3B"/>
</linearGradient>
<linearGradient id="paint1_linear_905_17717" x1="27.8857" y1="31.0531" x2="9.17551" y2="2.38368" gradientUnits="userSpaceOnUse">
<stop offset="0.0076157" stop-color="#645AFF"/>
<stop offset="0.484678" stop-color="#E40C5B"/>
<stop offset="1" stop-color="#FF4C3B"/>
</linearGradient>
<linearGradient id="paint2_linear_905_17717" x1="27.8857" y1="31.0531" x2="9.17551" y2="2.38368" gradientUnits="userSpaceOnUse">
<stop offset="0.0076157" stop-color="#645AFF"/>
<stop offset="0.484678" stop-color="#E40C5B"/>
<stop offset="1" stop-color="#FF4C3B"/>
</linearGradient>
<linearGradient id="paint3_linear_905_17717" x1="27.8857" y1="31.0531" x2="9.17551" y2="2.38368" gradientUnits="userSpaceOnUse">
<stop offset="0.0076157" stop-color="#645AFF"/>
<stop offset="0.484678" stop-color="#E40C5B"/>
<stop offset="1" stop-color="#FF4C3B"/>
</linearGradient>
<linearGradient id="paint4_linear_905_17717" x1="27.8857" y1="31.0531" x2="9.17551" y2="2.38368" gradientUnits="userSpaceOnUse">
<stop offset="0.0076157" stop-color="#645AFF"/>
<stop offset="0.484678" stop-color="#E40C5B"/>
<stop offset="1" stop-color="#FF4C3B"/>
</linearGradient>
<linearGradient id="paint5_linear_905_17717" x1="93.339" y1="22.8895" x2="89.1211" y2="0.484481" gradientUnits="userSpaceOnUse">
<stop stop-color="#5A81FF"/>
<stop offset="0.5238" stop-color="#E40C5B"/>
<stop offset="1" stop-color="#FF4C3B"/>
</linearGradient>
<linearGradient id="paint6_linear_905_17717" x1="93.339" y1="22.8895" x2="89.1211" y2="0.484481" gradientUnits="userSpaceOnUse">
<stop stop-color="#5A81FF"/>
<stop offset="0.5238" stop-color="#E40C5B"/>
<stop offset="1" stop-color="#FF4C3B"/>
</linearGradient>
<linearGradient id="paint7_linear_905_17717" x1="93.339" y1="22.8895" x2="89.1211" y2="0.484481" gradientUnits="userSpaceOnUse">
<stop stop-color="#5A81FF"/>
<stop offset="0.5238" stop-color="#E40C5B"/>
<stop offset="1" stop-color="#FF4C3B"/>
</linearGradient>
<linearGradient id="paint8_linear_905_17717" x1="93.339" y1="22.8895" x2="89.1211" y2="0.484481" gradientUnits="userSpaceOnUse">
<stop stop-color="#5A81FF"/>
<stop offset="0.5238" stop-color="#E40C5B"/>
<stop offset="1" stop-color="#FF4C3B"/>
</linearGradient>
<linearGradient id="paint9_linear_905_17717" x1="93.339" y1="22.8895" x2="89.1211" y2="0.484481" gradientUnits="userSpaceOnUse">
<stop stop-color="#5A81FF"/>
<stop offset="0.5238" stop-color="#E40C5B"/>
<stop offset="1" stop-color="#FF4C3B"/>
</linearGradient>
</defs>
</svg>
