<svg width="1440" height="120" viewBox="0 0 1440 120" fill="none" xmlns="http://www.w3.org/2000/svg">
<g clip-path="url(#clip0_1216_12985)">
<rect width="1440" height="180" fill="url(#paint0_linear_1216_12985)"/>
<rect width="1440" height="180" fill="url(#paint1_linear_1216_12985)" fill-opacity="0.2"/>
<g style="mix-blend-mode:overlay" opacity="0.5">
<path opacity="0.025641" d="M463.893 166.035C463.893 166.035 888.7 167.843 890.603 64.3407C892.506 -39.1612 1096.14 -4.59807 1205.11 -32.6203C1314.08 -60.6425 1356.4 -144.753 1565.97 -143.874C1775.55 -142.995 1760.28 -200.394 1760.28 -200.394" stroke="#999999" stroke-width="0.5"/>
<path opacity="0.0512821" d="M437.858 165.857C437.858 165.857 862.52 170.591 869.001 67.1175C875.481 -36.3554 1077.55 -0.395256 1187.75 -27.6627C1297.94 -54.9302 1343.97 -138.737 1553.48 -136.415C1762.99 -134.092 1750.25 -191.587 1750.25 -191.587" stroke="#9B9B9B" stroke-width="0.5"/>
<path opacity="0.0769231" d="M412.03 165.627C412.03 165.627 836.418 173.284 847.474 69.8714C858.53 -33.5412 1058.98 3.80515 1170.36 -22.6993C1281.75 -49.2037 1331.48 -132.68 1540.85 -128.916C1750.22 -125.151 1740.03 -182.725 1740.03 -182.725" stroke="#9E9E9E" stroke-width="0.5"/>
<path opacity="0.102564" d="M386.405 165.346C386.405 165.346 810.39 175.924 826.018 72.6035C841.646 -30.7172 1040.41 8.00384 1152.95 -17.7295C1265.49 -43.4628 1318.9 -126.584 1528.08 -121.378C1737.25 -116.173 1729.61 -173.808 1729.61 -173.808" stroke="#A1A1A1" stroke-width="0.5"/>
<path opacity="0.128205" d="M360.987 165.015C360.987 165.015 784.439 178.511 804.635 75.3139C824.83 -27.8834 1021.85 12.2006 1135.51 -12.7537C1249.18 -37.7081 1306.26 -120.449 1515.17 -113.804C1724.08 -107.158 1718.99 -164.837 1718.99 -164.837" stroke="#A3A3A3" stroke-width="0.5"/>
<path opacity="0.153846" d="M335.781 164.635C335.781 164.635 758.571 181.046 783.328 78.0033C808.084 -25.0392 1003.3 16.3955 1118.05 -7.77228C1232.8 -31.9401 1293.53 -114.275 1502.12 -106.192C1710.71 -98.1087 1708.17 -155.814 1708.17 -155.814" stroke="#A6A6A6" stroke-width="0.5"/>
<path opacity="0.179487" d="M310.785 164.208C310.785 164.208 732.785 183.528 762.096 80.6721C791.406 -22.1842 984.763 20.5886 1100.56 -2.78522C1216.36 -26.1591 1280.72 -108.064 1488.92 -98.545C1697.12 -89.0264 1697.13 -146.74 1697.13 -146.74" stroke="#A9A9A9" stroke-width="0.5"/>
<path opacity="0.205128" d="M286.005 163.737C286.005 163.737 707.087 185.96 740.942 83.3211C774.797 -19.3177 966.233 24.7803 1083.05 2.20745C1199.86 -20.3654 1267.84 -101.814 1475.58 -90.8632C1683.33 -79.9123 1685.9 -137.617 1685.9 -137.617" stroke="#ACACAC" stroke-width="0.5"/>
<path opacity="0.230769" d="M261.44 163.221C261.44 163.221 681.475 188.34 719.864 85.9504C758.253 -16.4397 947.71 28.9699 1065.51 7.20503C1183.3 -14.5599 1254.87 -95.5282 1462.1 -83.1482C1669.33 -70.7682 1674.45 -128.447 1674.45 -128.447" stroke="#AEAEAE" stroke-width="0.5"/>
<path opacity="0.25641" d="M237.093 162.662C237.093 162.662 655.953 190.671 698.865 88.5607C741.776 -13.5494 929.196 33.1581 1047.94 12.2077C1166.68 -8.74263 1241.81 -89.2057 1448.47 -75.4005C1655.12 -61.5952 1662.78 -119.23 1662.78 -119.23" stroke="#B1B1B1" stroke-width="0.5"/>
<path opacity="0.282051" d="M212.968 162.063C212.968 162.063 630.525 192.952 677.946 91.1527C725.367 -10.6463 910.693 37.3447 1030.34 17.2153C1149.99 -2.91417 1228.68 -82.8476 1434.68 -67.6213C1640.69 -52.395 1650.91 -109.968 1650.91 -109.968" stroke="#B4B4B4" stroke-width="0.5"/>
<path opacity="0.307692" d="M189.064 161.424C189.064 161.424 605.191 195.184 657.108 93.7268C709.024 -7.73014 892.199 41.5299 1012.72 22.2275C1133.24 2.92514 1215.45 -76.4542 1420.75 -59.8115C1626.06 -43.1688 1638.82 -100.663 1638.82 -100.663" stroke="#B6B6B6" stroke-width="0.5"/>
<path opacity="0.333333" d="M165.379 160.747C165.379 160.747 579.95 197.367 636.346 96.2835C692.742 -4.80047 873.71 45.7135 995.066 27.2441C1116.42 8.77464 1202.13 -70.0265 1406.67 -51.9724C1611.2 -33.9184 1626.5 -91.3155 1626.5 -91.3155" stroke="#B9B9B9" stroke-width="0.5"/>
<path opacity="0.358974" d="M141.924 160.034C141.924 160.034 554.812 199.504 615.67 98.8237C676.528 -1.85648 855.234 49.8961 977.389 32.2652C1099.54 14.6344 1188.72 -63.5645 1392.43 -44.1046C1596.14 -24.6447 1613.97 -81.9277 1613.97 -81.9277" stroke="#BCBCBC" stroke-width="0.5"/>
<path opacity="0.384615" d="M118.694 159.286C118.694 159.286 529.773 201.593 595.075 101.347C660.376 1.10169 836.767 54.0771 959.683 37.2901C1082.6 20.5032 1175.22 -57.0696 1378.04 -36.2098C1580.85 -15.35 1601.22 -72.5014 1601.22 -72.5014" stroke="#BEBEBE" stroke-width="0.5"/>
<path opacity="0.410256" d="M95.6925 158.504C95.6925 158.504 504.838 203.636 574.563 103.856C644.289 4.07488 818.309 58.257 941.949 42.3191C1065.59 26.3812 1161.63 -50.5419 1363.49 -28.2885C1565.35 -6.03519 1588.25 -63.0376 1588.25 -63.0376" stroke="#C1C1C1" stroke-width="0.5"/>
<path opacity="0.435897" d="M72.9186 157.691C72.9186 157.691 480.006 205.634 554.134 106.349C628.261 7.06351 799.859 62.4358 924.184 47.3518C1048.51 32.2678 1147.94 -43.9821 1348.78 -20.342C1549.63 3.29814 1575.04 -53.5379 1575.04 -53.5379" stroke="#C4C4C4" stroke-width="0.5"/>
<path opacity="0.461538" d="M50.3776 156.848C50.3776 156.848 455.283 207.587 533.79 108.828C612.298 10.0679 781.42 66.6135 906.394 52.388C1031.37 38.1625 1134.15 -37.3911 1333.92 -12.3714C1533.69 12.6484 1561.61 -44.0041 1561.61 -44.0041" stroke="#C6C6C6" stroke-width="0.5"/>
<path opacity="0.487179" d="M28.0674 155.977C28.0674 155.977 430.667 209.496 513.53 111.292C596.394 13.0884 762.99 70.7901 888.573 57.4275C1014.16 44.0648 1120.27 -30.7694 1318.9 -4.37778C1517.54 22.0139 1547.96 -34.4376 1547.96 -34.4376" stroke="#C9C9C9" stroke-width="0.5"/>
<path opacity="0.512821" d="M5.99243 155.078C5.99243 155.078 406.163 211.362 493.357 113.744C580.552 16.1255 744.57 74.9657 870.726 62.47C996.882 49.9742 1106.29 -24.1179 1303.72 3.63772C1501.16 31.3933 1534.07 -24.8401 1534.07 -24.8401" stroke="#CCCCCC" stroke-width="0.5"/>
<path opacity="0.538462" d="M-15.849 154.154C-15.849 154.154 381.772 213.186 473.27 116.183C564.768 19.1798 726.159 79.1406 852.849 67.5156C979.538 55.8905 1092.2 -17.4368 1288.38 11.6742C1484.56 40.7853 1519.96 -15.2129 1519.96 -15.2129" stroke="#CFCFCF" stroke-width="0.5"/>
<path opacity="0.564103" d="M-37.4542 153.207C-37.4542 153.207 357.495 214.968 453.27 118.61C549.044 22.2515 707.759 83.3147 834.943 72.5639C962.127 61.8131 1078.02 -10.7272 1272.88 19.7304C1467.74 50.1881 1505.61 -5.55779 1505.61 -5.55779" stroke="#D1D1D1" stroke-width="0.5"/>
<path opacity="0.589744" d="M-58.8234 152.237C-58.8234 152.237 333.334 216.709 433.356 121.025C533.378 25.3409 689.367 87.4878 817.008 77.6145C944.648 67.7412 1063.73 -3.98991 1257.21 27.8051C1450.7 59.6 1491.03 4.12344 1491.03 4.12344" stroke="#D4D4D4" stroke-width="0.5"/>
<path opacity="0.615385" d="M-79.9558 151.247C-79.9558 151.247 309.291 218.41 413.529 123.429C517.768 28.4486 670.985 91.6603 799.042 82.6675C927.1 73.6748 1049.34 2.77466 1241.38 35.8973C1433.43 69.0199 1476.21 13.8295 1476.21 13.8295" stroke="#D7D7D7" stroke-width="0.5"/>
<path opacity="0.641026" d="M-100.849 150.239C-100.849 150.239 285.367 220.071 393.791 125.823C502.214 31.5748 652.612 95.8321 781.048 87.7226C909.484 79.6131 1034.84 9.56558 1225.39 44.0057C1415.95 78.4459 1461.15 23.5585 1461.15 23.5585" stroke="#D9D9D9" stroke-width="0.5"/>
<path opacity="0.666667" d="M-121.502 149.213C-121.502 149.213 261.567 221.695 374.143 128.207C486.718 34.7203 634.251 100.003 763.026 92.7797C891.801 85.556 1020.23 16.3824 1209.24 52.1296C1398.24 87.8768 1445.87 33.3091 1445.87 33.3091" stroke="#DCDCDC" stroke-width="0.5"/>
<path opacity="0.692308" d="M-141.916 148.171C-141.916 148.171 237.889 223.28 354.582 130.583C471.275 37.885 615.898 104.174 744.973 97.8385C874.048 91.5027 1005.52 23.2241 1192.91 60.2675C1380.3 97.3109 1430.34 43.0795 1430.34 43.0795" stroke="#DFDFDF" stroke-width="0.5"/>
<path opacity="0.717949" d="M-162.09 147.116C-162.09 147.116 214.335 224.829 335.11 132.949C455.885 41.0696 597.555 108.345 726.89 102.899C856.226 97.4528 990.697 30.0901 1176.42 68.4183C1362.15 106.747 1414.58 52.868 1414.58 52.868" stroke="#E1E1E1" stroke-width="0.5"/>
<path opacity="0.74359" d="M-182.022 146.049C-182.022 146.049 190.909 226.343 315.729 135.308C440.549 44.2743 579.222 112.515 708.778 107.96C838.335 103.406 975.765 36.9796 1159.77 76.5811C1343.77 116.183 1398.57 62.6733 1398.57 62.6733" stroke="#E4E4E4" stroke-width="0.5"/>
<path opacity="0.769231" d="M-201.711 144.971C-201.711 144.971 167.612 227.821 296.44 137.66C425.267 47.4994 560.901 116.685 690.639 113.023C820.377 109.362 960.725 43.8918 1142.95 84.7544C1325.17 125.617 1382.33 72.4932 1382.33 72.4932" stroke="#E7E7E7" stroke-width="0.5"/>
<path opacity="0.794872" d="M-221.159 143.885C-221.159 143.885 144.443 229.265 277.239 140.005C410.034 50.7455 542.587 120.854 672.468 118.087C802.348 115.319 945.57 50.8259 1125.96 92.9372C1306.34 135.049 1365.85 82.3265 1365.85 82.3265" stroke="#E9E9E9" stroke-width="0.5"/>
<path opacity="0.820513" d="M-240.366 142.791C-240.366 142.791 121.405 230.676 258.128 142.344C394.851 54.0126 524.282 125.023 654.265 123.151C784.248 121.278 930.301 57.7811 1108.8 101.128C1287.3 144.475 1349.12 92.1713 1349.12 92.1713" stroke="#ECECEC" stroke-width="0.5"/>
<path opacity="0.846154" d="M-259.328 141.691C-259.328 141.691 98.5008 232.054 239.11 144.678C379.719 57.3014 505.99 129.193 636.036 128.216C766.082 127.239 914.921 64.7569 1091.47 109.327C1268.03 153.897 1332.15 102.026 1332.15 102.026" stroke="#EFEFEF" stroke-width="0.5"/>
<path opacity="0.871795" d="M-278.046 140.588C-278.046 140.588 75.731 233.402 220.183 147.007C364.635 60.6121 487.708 133.362 617.777 133.281C747.846 133.199 899.426 71.7522 1073.98 117.531C1248.54 163.31 1314.95 111.889 1314.95 111.889" stroke="#F2F2F2" stroke-width="0.5"/>
<path opacity="0.897436" d="M-296.526 139.483C-296.526 139.483 53.0926 234.719 201.344 149.332C349.595 63.9451 469.431 137.532 599.484 138.346C729.537 139.16 883.811 78.7665 1056.31 125.741C1228.82 172.715 1297.49 121.759 1297.49 121.759" stroke="#F4F4F4" stroke-width="0.5"/>
<path opacity="0.923077" d="M-314.759 138.377C-314.759 138.377 30.5941 236.006 182.599 151.653C334.604 67.3003 451.167 141.701 581.165 143.411C711.162 145.121 868.084 85.7985 1038.48 133.953C1208.88 182.108 1279.8 131.633 1279.8 131.633" stroke="#F7F7F7" stroke-width="0.5"/>
<path opacity="0.948718" d="M-332.749 137.272C-332.749 137.272 8.23381 237.265 163.946 153.972C319.659 70.6784 432.914 145.87 562.816 148.475C692.718 151.08 852.239 92.8477 1020.48 142.169C1188.73 191.49 1261.87 141.511 1261.87 141.511" stroke="#FAFAFA" stroke-width="0.5"/>
<path opacity="0.974359" d="M-350.495 136.171C-350.495 136.171 -13.9869 238.496 145.386 156.288C304.758 74.0799 414.671 150.04 544.438 153.54C674.205 157.039 836.277 99.9136 1002.31 150.386C1168.35 200.858 1243.69 151.39 1243.69 151.39" stroke="#FCFCFC" stroke-width="0.5"/>
<path d="M-368 135.074C-368 135.074 -36.0686 239.701 126.916 158.603C289.9 77.5047 396.436 154.211 526.029 158.603C655.621 162.995 820.195 106.995 983.975 158.603C1147.75 210.211 1225.27 161.27 1225.27 161.27" stroke="white" stroke-width="0.5"/>
</g>
</g>
<defs>
<linearGradient id="paint0_linear_1216_12985" x1="2023.5" y1="252.3" x2="1971.73" y2="-254.952" gradientUnits="userSpaceOnUse">
<stop stop-color="#645AFF"/>
<stop offset="0.520746" stop-color="#E40C5B"/>
<stop offset="0.985908" stop-color="#FF4C3B"/>
</linearGradient>
<linearGradient id="paint1_linear_1216_12985" x1="769.8" y1="-73.95" x2="1242.95" y2="757.673" gradientUnits="userSpaceOnUse">
<stop stop-color="white"/>
<stop offset="1" stop-color="white" stop-opacity="0"/>
</linearGradient>
<clipPath id="clip0_1216_12985">
<rect width="1440" height="120" fill="white"/>
</clipPath>
</defs>
</svg>
