<svg width="203" height="139" viewBox="0 0 203 139" fill="none" xmlns="http://www.w3.org/2000/svg">
  <rect x="66" y="39" width="64" height="64" rx="16" fill="url(#paint0_linear_1783_18695)"/>
  <g opacity="0.8">
  <path fill-rule="evenodd" clip-rule="evenodd" d="M74 27.5504H121.615C132.66 27.5504 141.615 36.5047 141.615 47.5504V95C141.615 106.046 132.66 115 121.615 115H74C62.9543 115 54 106.046 54 95V47.5504C54 36.5047 62.9543 27.5504 74 27.5504ZM74 31.5504C65.1634 31.5504 58 38.7138 58 47.5504V95C58 103.837 65.1634 111 74 111H121.615C130.451 111 137.615 103.837 137.615 95V47.5504C137.615 38.7139 130.451 31.5504 121.615 31.5504H74Z" fill="url(#paint1_linear_1783_18695)"/>
  <path fill-rule="evenodd" clip-rule="evenodd" d="M74 27.5504H121.615C132.66 27.5504 141.615 36.5047 141.615 47.5504V95C141.615 106.046 132.66 115 121.615 115H74C62.9543 115 54 106.046 54 95V47.5504C54 36.5047 62.9543 27.5504 74 27.5504ZM74 31.5504C65.1634 31.5504 58 38.7138 58 47.5504V95C58 103.837 65.1634 111 74 111H121.615C130.451 111 137.615 103.837 137.615 95V47.5504C137.615 38.7139 130.451 31.5504 121.615 31.5504H74Z" fill="url(#paint2_linear_1783_18695)" fill-opacity="0.2"/>
  </g>
  <path d="M13.4086 29.3083L14.695 32.0584L17.5752 32.5011C17.763 32.5135 17.924 32.6467 17.9797 32.8358C18.0354 33.0249 17.9742 33.2306 17.826 33.3526L15.7387 35.4897L16.2322 38.5123C16.232 38.674 16.154 38.8246 16.0249 38.9123C15.8957 39.0001 15.7332 39.0129 15.593 38.9465L13.0121 37.5246L10.4231 38.9465C10.2707 39.0297 10.0867 39.015 9.94786 38.9086C9.80905 38.8022 9.73934 38.6224 9.76781 38.4441L10.2613 35.4216L8.17396 33.2845C8.02578 33.1625 7.96464 32.9568 8.02034 32.7677C8.07605 32.5786 8.23701 32.4454 8.42477 32.433L11.305 31.9903L12.5914 29.2402C12.6785 29.0799 12.8457 28.9869 13.0205 29.0015C13.1954 29.0161 13.3466 29.1356 13.4086 29.3083Z" fill="#D6D3DE"/>
  <path d="M155.409 129.308L156.695 132.058L159.575 132.501C159.763 132.514 159.924 132.647 159.98 132.836C160.035 133.025 159.974 133.231 159.826 133.353L157.739 135.49L158.232 138.512C158.232 138.674 158.154 138.825 158.025 138.912C157.896 139 157.733 139.013 157.593 138.946L155.012 137.525L152.423 138.946C152.271 139.03 152.087 139.015 151.948 138.909C151.809 138.802 151.739 138.622 151.768 138.444L152.261 135.422L150.174 133.284C150.026 133.162 149.965 132.957 150.02 132.768C150.076 132.579 150.237 132.445 150.425 132.433L153.305 131.99L154.591 129.24C154.678 129.08 154.846 128.987 155.021 129.001C155.195 129.016 155.347 129.136 155.409 129.308Z" fill="#D6D3DE"/>
  <circle cx="86.5" cy="3.5" r="3.5" fill="#D6D3DE"/>
  <path d="M187.017 97.9702L194.97 90L202.924 97.9702L194.97 105.94L187.017 97.9702Z" fill="#D6D3DE"/>
  <path d="M26.3501 111.646L16.7058 102L3.53081 105.531L0 118.706L9.64422 128.35L22.8192 124.821L26.3501 111.646Z" fill="#D6D3DE"/>
  <g opacity="0.6">
  <path fill-rule="evenodd" clip-rule="evenodd" d="M17.8314 128.405L18.1585 128.634L18.6846 127.745L18.3576 127.516L17.8314 128.405ZM17.2142 130.23L16.8871 130L17.4133 129.111L17.7403 129.34L17.2142 130.23ZM16.2694 131.825L15.9424 131.595L16.4686 130.706L16.7956 130.935L16.2694 131.825Z" fill="url(#paint3_linear_1783_18695)"/>
  <path fill-rule="evenodd" clip-rule="evenodd" d="M16.7271 121.437L17.1643 122.334L17.5058 122.144L17.0685 121.247L16.7271 121.437ZM17.9496 123.945L17.5123 123.043L17.8538 122.853L18.291 123.75L17.9496 123.945ZM18.7353 125.557L18.2981 124.66L18.6396 124.47L19.0768 125.367L18.7353 125.557Z" fill="url(#paint4_linear_1783_18695)"/>
  <path fill-rule="evenodd" clip-rule="evenodd" d="M10.0669 119.789L11.0859 119.85L11.1071 119.35L10.088 119.289L10.0669 119.789ZM12.9171 119.961L11.8981 119.9L11.9192 119.4L12.9383 119.461L12.9171 119.961ZM14.7469 120.072L13.7278 120.011L13.749 119.51L14.768 119.572L14.7469 120.072Z" fill="url(#paint5_linear_1783_18695)"/>
  <path fill-rule="evenodd" clip-rule="evenodd" d="M7.25476 121.353L7.58179 121.583L8.10797 120.693L7.78094 120.464L7.25476 121.353ZM6.6375 123.178L6.31047 122.949L6.83665 122.059L7.16368 122.288L6.6375 123.178ZM5.69275 124.773L5.36572 124.544L5.89372 123.654L6.22075 123.884L5.69275 124.773Z" fill="url(#paint6_linear_1783_18695)"/>
  <path fill-rule="evenodd" clip-rule="evenodd" d="M5.36572 126.922L5.80295 127.819L6.14442 127.629L5.70719 126.732L5.36572 126.922ZM6.58821 129.43L6.15098 128.533L6.49245 128.343L6.92968 129.24L6.58821 129.43ZM7.37443 131.041L6.9372 130.145L7.27867 129.955L7.7159 130.851L7.37443 131.041Z" fill="url(#paint7_linear_1783_18695)"/>
  <path fill-rule="evenodd" clip-rule="evenodd" d="M9.2832 132.717L10.3023 132.778L10.3234 132.278L9.30435 132.217L9.2832 132.717ZM12.1332 132.889L11.1141 132.828L11.1353 132.328L12.1543 132.389L12.1332 132.889ZM13.9634 133L12.9444 132.939L12.9655 132.438L13.9846 132.5L13.9634 133Z" fill="url(#paint8_linear_1783_18695)"/>
  </g>
  <circle opacity="0.5" cx="99" cy="71" r="20" fill="white"/>
  <path opacity="0.8" d="M89 70.5L95.2961 76.6387C96.0729 77.396 97.3118 77.396 98.0885 76.6387L109 66" stroke="#645AFF" stroke-width="3" stroke-linecap="round"/>
  <circle cx="189" cy="22" r="10" fill="#D6D3DE"/>
  <defs>
  <linearGradient id="paint0_linear_1783_18695" x1="98" y1="39" x2="98.7079" y2="106.13" gradientUnits="userSpaceOnUse">
  <stop stop-color="#645AFF"/>
  <stop offset="1" stop-color="#645AFF" stop-opacity="0.2"/>
  </linearGradient>
  <linearGradient id="paint1_linear_1783_18695" x1="177.117" y1="-7.57517" x2="55.174" y2="142.046" gradientUnits="userSpaceOnUse">
  <stop stop-color="#645AFF"/>
  <stop offset="0.520746" stop-color="#E40C5B"/>
  <stop offset="0.985908" stop-color="#FF4C3B"/>
  </linearGradient>
  <linearGradient id="paint2_linear_1783_18695" x1="100.837" y1="150.927" x2="213.119" y2="126.212" gradientUnits="userSpaceOnUse">
  <stop stop-color="white"/>
  <stop offset="1" stop-color="white" stop-opacity="0"/>
  </linearGradient>
  <linearGradient id="paint3_linear_1783_18695" x1="18.8156" y1="140.659" x2="22.1693" y2="139.523" gradientUnits="userSpaceOnUse">
  <stop stop-color="#FF4C3B"/>
  <stop offset="1" stop-color="#E40C5B"/>
  </linearGradient>
  <linearGradient id="paint4_linear_1783_18695" x1="19.189" y1="134.392" x2="22.1436" y2="133.534" gradientUnits="userSpaceOnUse">
  <stop stop-color="#FF4C3B"/>
  <stop offset="1" stop-color="#E40C5B"/>
  </linearGradient>
  <linearGradient id="paint5_linear_1783_18695" x1="14.9926" y1="121.678" x2="15.5648" y2="119.851" gradientUnits="userSpaceOnUse">
  <stop stop-color="#FF4C3B"/>
  <stop offset="1" stop-color="#E40C5B"/>
  </linearGradient>
  <linearGradient id="paint6_linear_1783_18695" x1="8.23894" y1="133.607" x2="11.5927" y2="132.471" gradientUnits="userSpaceOnUse">
  <stop stop-color="#FF4C3B"/>
  <stop offset="1" stop-color="#E40C5B"/>
  </linearGradient>
  <linearGradient id="paint7_linear_1783_18695" x1="7.82815" y1="139.876" x2="10.7832" y2="139.018" gradientUnits="userSpaceOnUse">
  <stop stop-color="#FF4C3B"/>
  <stop offset="1" stop-color="#E40C5B"/>
  </linearGradient>
  <linearGradient id="paint8_linear_1783_18695" x1="14.2091" y1="134.606" x2="14.7811" y2="132.779" gradientUnits="userSpaceOnUse">
  <stop stop-color="#FF4C3B"/>
  <stop offset="1" stop-color="#E40C5B"/>
  </linearGradient>
  </defs>
  </svg>
  