<svg width="1440" height="433" viewBox="0 0 1440 433" fill="none" xmlns="http://www.w3.org/2000/svg">
<g style="mix-blend-mode:overlay" opacity="0.5">
<path opacity="0.025641" d="M424.893 388.035C424.893 388.035 849.7 389.843 851.603 286.341C853.506 182.839 1057.14 217.402 1166.11 189.38C1275.08 161.358 1317.4 77.2469 1526.97 78.1258C1736.55 79.0047 1721.28 21.6065 1721.28 21.6065" stroke="#999999" stroke-width="0.5"/>
<path opacity="0.0512821" d="M398.858 387.857C398.858 387.857 823.52 392.59 830.001 289.117C836.481 185.645 1038.55 221.605 1148.75 194.337C1258.94 167.07 1304.97 83.2633 1514.48 85.5854C1723.99 87.9074 1711.25 30.4127 1711.25 30.4127" stroke="#9B9B9B" stroke-width="0.5"/>
<path opacity="0.0769231" d="M373.03 387.627C373.03 387.627 797.418 395.284 808.474 291.871C819.53 188.459 1019.98 225.805 1131.36 199.301C1242.75 172.796 1292.48 89.3197 1501.85 93.0842C1711.22 96.8488 1701.03 39.2752 1701.03 39.2752" stroke="#9E9E9E" stroke-width="0.5"/>
<path opacity="0.102564" d="M347.405 387.346C347.405 387.346 771.39 397.924 787.018 294.604C802.646 191.283 1001.41 230.004 1113.95 204.271C1226.49 178.537 1279.9 95.4157 1489.08 100.622C1698.25 105.827 1690.61 48.1924 1690.61 48.1924" stroke="#A1A1A1" stroke-width="0.5"/>
<path opacity="0.128205" d="M321.987 387.015C321.987 387.015 745.439 400.511 765.635 297.314C785.83 194.117 982.853 234.201 1096.51 209.246C1210.18 184.292 1267.26 101.551 1476.17 108.197C1685.08 114.842 1679.99 57.1633 1679.99 57.1633" stroke="#A3A3A3" stroke-width="0.5"/>
<path opacity="0.153846" d="M296.781 386.635C296.781 386.635 719.571 403.046 744.328 300.003C769.084 196.961 964.304 238.396 1079.05 214.228C1193.8 190.06 1254.53 107.725 1463.12 115.808C1671.71 123.891 1669.17 66.1862 1669.17 66.1862" stroke="#A6A6A6" stroke-width="0.5"/>
<path opacity="0.179487" d="M271.785 386.209C271.785 386.209 693.786 405.528 723.096 302.672C752.406 199.816 945.763 242.589 1061.56 219.215C1177.36 195.841 1241.72 113.936 1449.92 123.455C1658.12 132.974 1658.13 75.2598 1658.13 75.2598" stroke="#A9A9A9" stroke-width="0.5"/>
<path opacity="0.205128" d="M247.005 385.737C247.005 385.737 668.087 407.96 701.942 305.321C735.797 202.682 927.233 246.78 1044.05 224.207C1160.86 201.635 1228.84 120.186 1436.58 131.137C1644.33 142.088 1646.9 84.3828 1646.9 84.3828" stroke="#ACACAC" stroke-width="0.5"/>
<path opacity="0.230769" d="M222.44 385.221C222.44 385.221 642.475 410.34 680.864 307.95C719.253 205.56 908.71 250.97 1026.51 229.205C1144.3 207.44 1215.87 126.472 1423.1 138.852C1630.33 151.232 1635.45 93.5533 1635.45 93.5533" stroke="#AEAEAE" stroke-width="0.5"/>
<path opacity="0.25641" d="M198.093 384.662C198.093 384.662 616.953 412.671 659.865 310.561C702.776 208.451 890.196 255.158 1008.94 234.208C1127.68 213.257 1202.81 132.794 1409.47 146.6C1616.12 160.405 1623.78 102.77 1623.78 102.77" stroke="#B1B1B1" stroke-width="0.5"/>
<path opacity="0.282051" d="M173.968 384.063C173.968 384.063 591.525 414.952 638.946 313.153C686.367 211.354 871.693 259.345 991.342 239.215C1110.99 219.086 1189.68 139.152 1395.68 154.379C1601.69 169.605 1611.91 112.032 1611.91 112.032" stroke="#B4B4B4" stroke-width="0.5"/>
<path opacity="0.307692" d="M150.064 383.424C150.064 383.424 566.191 417.184 618.108 315.727C670.024 214.27 853.199 263.53 973.72 244.228C1094.24 224.925 1176.45 145.546 1381.75 162.189C1587.06 178.831 1599.82 121.338 1599.82 121.338" stroke="#B6B6B6" stroke-width="0.5"/>
<path opacity="0.333333" d="M126.379 382.747C126.379 382.747 540.95 419.367 597.346 318.283C653.742 217.2 834.71 267.714 956.066 249.244C1077.42 230.775 1163.13 151.974 1367.67 170.028C1572.2 188.082 1587.5 130.685 1587.5 130.685" stroke="#B9B9B9" stroke-width="0.5"/>
<path opacity="0.358974" d="M102.924 382.034C102.924 382.034 515.812 421.504 576.67 320.824C637.528 220.143 816.234 271.896 938.389 254.265C1060.54 236.634 1149.72 158.435 1353.43 177.895C1557.14 197.355 1574.97 140.072 1574.97 140.072" stroke="#BCBCBC" stroke-width="0.5"/>
<path opacity="0.384615" d="M79.6939 381.286C79.6939 381.286 490.773 423.593 556.075 323.347C621.376 223.102 797.767 276.077 920.683 259.29C1043.6 242.503 1136.22 164.93 1339.04 185.79C1541.85 206.65 1562.22 149.499 1562.22 149.499" stroke="#BEBEBE" stroke-width="0.5"/>
<path opacity="0.410256" d="M56.6924 380.504C56.6924 380.504 465.838 425.636 535.563 325.856C605.289 226.075 779.309 280.257 902.949 264.319C1026.59 248.381 1122.63 171.458 1324.49 193.712C1526.35 215.965 1549.25 158.962 1549.25 158.962" stroke="#C1C1C1" stroke-width="0.5"/>
<path opacity="0.435897" d="M33.9186 379.691C33.9186 379.691 441.006 427.634 515.134 328.349C589.261 229.064 760.859 284.436 885.184 269.352C1009.51 254.268 1108.94 178.018 1309.78 201.658C1510.63 225.298 1536.04 168.462 1536.04 168.462" stroke="#C4C4C4" stroke-width="0.5"/>
<path opacity="0.461538" d="M11.3776 378.848C11.3776 378.848 416.283 429.587 494.79 330.828C573.298 232.068 742.42 288.614 867.394 274.388C992.368 260.163 1095.15 184.609 1294.92 209.629C1494.69 234.648 1522.61 177.996 1522.61 177.996" stroke="#C6C6C6" stroke-width="0.5"/>
<path opacity="0.487179" d="M-10.9325 377.977C-10.9325 377.977 391.667 431.496 474.53 333.292C557.394 235.088 723.99 292.79 849.574 279.427C975.158 266.065 1081.27 191.231 1279.9 217.622C1478.54 244.014 1508.96 187.562 1508.96 187.562" stroke="#C9C9C9" stroke-width="0.5"/>
<path opacity="0.512821" d="M-33.0076 377.078C-33.0076 377.078 367.163 433.362 454.357 335.744C541.552 238.126 705.57 296.966 831.726 284.47C957.882 271.974 1067.29 197.882 1264.72 225.638C1462.16 253.393 1495.07 197.16 1495.07 197.16" stroke="#CCCCCC" stroke-width="0.5"/>
<path opacity="0.538462" d="M-54.849 376.154C-54.849 376.154 342.772 435.186 434.27 338.183C525.768 241.18 687.159 301.141 813.849 289.516C940.538 277.89 1053.2 204.563 1249.38 233.674C1445.56 262.785 1480.96 206.787 1480.96 206.787" stroke="#CFCFCF" stroke-width="0.5"/>
<path opacity="0.564103" d="M-76.4543 375.207C-76.4543 375.207 318.495 436.968 414.27 340.61C510.044 244.251 668.759 305.315 795.943 294.564C923.127 283.813 1039.02 211.273 1233.88 241.73C1428.74 272.188 1466.61 216.442 1466.61 216.442" stroke="#D1D1D1" stroke-width="0.5"/>
<path opacity="0.589744" d="M-97.8234 374.237C-97.8234 374.237 294.334 438.709 394.356 343.025C494.378 247.341 650.367 309.488 778.008 299.614C905.648 289.741 1024.73 218.01 1218.21 249.805C1411.7 281.6 1452.03 226.123 1452.03 226.123" stroke="#D4D4D4" stroke-width="0.5"/>
<path opacity="0.615385" d="M-118.956 373.247C-118.956 373.247 270.291 440.41 374.529 345.429C478.768 250.449 631.985 313.66 760.042 304.667C888.1 295.675 1010.34 224.775 1202.38 257.897C1394.43 291.02 1437.21 235.829 1437.21 235.829" stroke="#D7D7D7" stroke-width="0.5"/>
<path opacity="0.641026" d="M-139.849 372.239C-139.849 372.239 246.367 442.071 354.79 347.823C463.214 253.575 613.612 317.832 742.048 309.723C870.484 301.613 995.837 231.566 1186.39 266.006C1376.95 300.446 1422.15 245.558 1422.15 245.558" stroke="#D9D9D9" stroke-width="0.5"/>
<path opacity="0.666667" d="M-160.502 371.213C-160.502 371.213 222.567 443.695 335.143 350.207C447.718 256.72 595.251 322.004 724.026 314.78C852.801 307.556 981.233 238.382 1170.24 274.13C1359.24 309.877 1406.87 255.309 1406.87 255.309" stroke="#DCDCDC" stroke-width="0.5"/>
<path opacity="0.692308" d="M-180.916 370.171C-180.916 370.171 198.889 445.28 315.582 352.583C432.275 259.885 576.898 326.174 705.973 319.838C835.048 313.503 966.52 245.224 1153.91 282.268C1341.3 319.311 1391.34 265.079 1391.34 265.079" stroke="#DFDFDF" stroke-width="0.5"/>
<path opacity="0.717949" d="M-201.09 369.116C-201.09 369.116 175.335 446.829 296.11 354.949C416.885 263.069 558.555 330.345 687.89 324.899C817.226 319.453 951.697 252.09 1137.42 290.418C1323.15 328.747 1375.58 274.868 1375.58 274.868" stroke="#E1E1E1" stroke-width="0.5"/>
<path opacity="0.74359" d="M-221.022 368.049C-221.022 368.049 151.909 448.342 276.729 357.308C401.549 266.274 540.222 334.515 669.778 329.96C799.335 325.406 936.765 258.98 1120.77 298.581C1304.77 338.183 1359.57 284.673 1359.57 284.673" stroke="#E4E4E4" stroke-width="0.5"/>
<path opacity="0.769231" d="M-240.711 366.971C-240.711 366.971 128.612 449.821 257.44 359.66C386.267 269.499 521.901 338.685 651.639 335.023C781.377 331.362 921.725 265.892 1103.95 306.754C1286.17 347.617 1343.33 294.493 1343.33 294.493" stroke="#E7E7E7" stroke-width="0.5"/>
<path opacity="0.794872" d="M-260.159 365.885C-260.159 365.885 105.443 451.265 238.239 362.005C371.034 272.745 503.587 342.854 633.468 340.087C763.348 337.319 906.57 272.826 1086.96 314.937C1267.34 357.048 1326.85 304.327 1326.85 304.327" stroke="#E9E9E9" stroke-width="0.5"/>
<path opacity="0.820513" d="M-279.366 364.791C-279.366 364.791 82.4046 452.676 219.128 364.344C355.851 276.013 485.282 347.023 615.265 345.151C745.248 343.278 891.301 279.781 1069.8 323.128C1248.3 366.475 1310.12 314.171 1310.12 314.171" stroke="#ECECEC" stroke-width="0.5"/>
<path opacity="0.846154" d="M-298.328 363.691C-298.328 363.691 59.5008 454.054 200.11 366.678C340.719 279.301 466.99 351.193 597.036 350.216C727.082 349.239 875.921 286.757 1052.47 331.327C1229.03 375.897 1293.15 324.026 1293.15 324.026" stroke="#EFEFEF" stroke-width="0.5"/>
<path opacity="0.871795" d="M-317.046 362.588C-317.046 362.588 36.731 455.402 181.183 369.007C325.635 282.612 448.708 355.362 578.777 355.281C708.846 355.199 860.426 293.752 1034.98 339.531C1209.54 385.31 1275.95 333.889 1275.95 333.889" stroke="#F2F2F2" stroke-width="0.5"/>
<path opacity="0.897436" d="M-335.526 361.483C-335.526 361.483 14.0926 456.719 162.344 371.332C310.595 285.945 430.431 359.532 560.484 360.346C690.537 361.16 844.811 300.766 1017.31 347.741C1189.82 394.715 1258.49 343.759 1258.49 343.759" stroke="#F4F4F4" stroke-width="0.5"/>
<path opacity="0.923077" d="M-353.759 360.377C-353.759 360.377 -8.40593 458.006 143.599 373.653C295.604 289.3 412.167 363.701 542.165 365.411C672.162 367.121 829.084 307.799 999.483 355.953C1169.88 404.108 1240.8 353.633 1240.8 353.633" stroke="#F7F7F7" stroke-width="0.5"/>
<path opacity="0.948718" d="M-371.749 359.272C-371.749 359.272 -30.7663 459.265 124.946 375.972C280.659 292.678 393.914 367.87 523.816 370.475C653.718 373.08 813.239 314.848 981.483 364.169C1149.73 413.49 1222.87 363.511 1222.87 363.511" stroke="#FAFAFA" stroke-width="0.5"/>
<path opacity="0.974359" d="M-389.495 358.171C-389.495 358.171 -52.9869 460.496 106.386 378.288C265.758 296.08 375.671 372.04 505.438 375.54C635.205 379.039 797.277 321.914 963.314 372.386C1129.35 422.858 1204.69 373.39 1204.69 373.39" stroke="#FCFCFC" stroke-width="0.5"/>
<path d="M-407 357.074C-407 357.074 -75.0686 461.701 87.9157 380.603C250.9 299.505 357.436 376.211 487.029 380.603C616.621 384.995 781.195 328.995 944.975 380.603C1108.75 432.211 1186.27 383.27 1186.27 383.27" stroke="white" stroke-width="0.5"/>
</g>
</svg>
