<svg width="58" height="18" viewBox="0 0 58 18" fill="none" xmlns="http://www.w3.org/2000/svg">
  <rect x="0.320455" y="0.320455" width="57.3591" height="17.3591" rx="8.67955" stroke="url(#paint0_linear_2075_28026)" stroke-width="0.640909"/>
  <rect x="0.320455" y="0.320455" width="57.3591" height="17.3591" rx="8.67955" stroke="url(#paint1_linear_2075_28026)" stroke-opacity="0.2" stroke-width="0.640909"/>
  <path d="M15.336 8.80387C15.7833 8.92854 16.1353 9.15587 16.392 9.48587C16.6487 9.80854 16.777 10.2192 16.777 10.7179C16.777 11.3852 16.524 11.8985 16.018 12.2579C15.5193 12.6172 14.7897 12.7969 13.829 12.7969H10.155V5.09687H13.609C14.489 5.09687 15.1673 5.27287 15.644 5.62487C16.128 5.97687 16.37 6.46454 16.37 7.08787C16.37 7.49121 16.2747 7.83954 16.084 8.13287C15.9007 8.42621 15.6513 8.64987 15.336 8.80387ZM11.255 5.98787V8.45187H13.51C14.0747 8.45187 14.5073 8.34921 14.808 8.14387C15.116 7.93121 15.27 7.62321 15.27 7.21987C15.27 6.81654 15.116 6.51221 14.808 6.30687C14.5073 6.09421 14.0747 5.98787 13.51 5.98787H11.255ZM13.785 11.9059C14.4083 11.9059 14.8777 11.8032 15.193 11.5979C15.5083 11.3925 15.666 11.0699 15.666 10.6299C15.666 9.77187 15.039 9.34287 13.785 9.34287H11.255V11.9059H13.785ZM21.9562 12.8849C21.1789 12.8849 20.4785 12.7162 19.8552 12.3789C19.2319 12.0342 18.7405 11.5612 18.3812 10.9599C18.0292 10.3585 17.8532 9.68754 17.8532 8.94687C17.8532 8.20621 18.0292 7.53521 18.3812 6.93387C18.7405 6.33254 19.2319 5.86321 19.8552 5.52587C20.4785 5.18121 21.1789 5.00887 21.9562 5.00887C22.7262 5.00887 23.4229 5.18121 24.0462 5.52587C24.6695 5.86321 25.1572 6.33254 25.5092 6.93387C25.8612 7.52787 26.0372 8.19887 26.0372 8.94687C26.0372 9.69487 25.8612 10.3695 25.5092 10.9709C25.1572 11.5649 24.6695 12.0342 24.0462 12.3789C23.4229 12.7162 22.7262 12.8849 21.9562 12.8849ZM21.9562 11.9059C22.5209 11.9059 23.0269 11.7775 23.4742 11.5209C23.9289 11.2642 24.2845 10.9122 24.5412 10.4649C24.8052 10.0102 24.9372 9.50421 24.9372 8.94687C24.9372 8.38954 24.8052 7.88721 24.5412 7.43987C24.2845 6.98521 23.9289 6.62954 23.4742 6.37287C23.0269 6.11621 22.5209 5.98787 21.9562 5.98787C21.3915 5.98787 20.8782 6.11621 20.4162 6.37287C19.9615 6.62954 19.6022 6.98521 19.3382 7.43987C19.0815 7.88721 18.9532 8.38954 18.9532 8.94687C18.9532 9.50421 19.0815 10.0102 19.3382 10.4649C19.6022 10.9122 19.9615 11.2642 20.4162 11.5209C20.8782 11.7775 21.3915 11.9059 21.9562 11.9059ZM31.1945 12.8849C30.4171 12.8849 29.7168 12.7162 29.0935 12.3789C28.4701 12.0342 27.9788 11.5612 27.6195 10.9599C27.2675 10.3585 27.0915 9.68754 27.0915 8.94687C27.0915 8.20621 27.2675 7.53521 27.6195 6.93387C27.9788 6.33254 28.4701 5.86321 29.0935 5.52587C29.7168 5.18121 30.4171 5.00887 31.1945 5.00887C31.9645 5.00887 32.6611 5.18121 33.2845 5.52587C33.9078 5.86321 34.3955 6.33254 34.7475 6.93387C35.0995 7.52787 35.2755 8.19887 35.2755 8.94687C35.2755 9.69487 35.0995 10.3695 34.7475 10.9709C34.3955 11.5649 33.9078 12.0342 33.2845 12.3789C32.6611 12.7162 31.9645 12.8849 31.1945 12.8849ZM31.1945 11.9059C31.7591 11.9059 32.2651 11.7775 32.7125 11.5209C33.1671 11.2642 33.5228 10.9122 33.7795 10.4649C34.0435 10.0102 34.1755 9.50421 34.1755 8.94687C34.1755 8.38954 34.0435 7.88721 33.7795 7.43987C33.5228 6.98521 33.1671 6.62954 32.7125 6.37287C32.2651 6.11621 31.7591 5.98787 31.1945 5.98787C30.6298 5.98787 30.1165 6.11621 29.6545 6.37287C29.1998 6.62954 28.8405 6.98521 28.5765 7.43987C28.3198 7.88721 28.1915 8.38954 28.1915 8.94687C28.1915 9.50421 28.3198 10.0102 28.5765 10.4649C28.8405 10.9122 29.1998 11.2642 29.6545 11.5209C30.1165 11.7775 30.6298 11.9059 31.1945 11.9059ZM39.2008 12.8849C38.6214 12.8849 38.0604 12.7969 37.5178 12.6209C36.9824 12.4375 36.5608 12.2029 36.2528 11.9169L36.6598 11.0589C36.9531 11.3229 37.3271 11.5392 37.7818 11.7079C38.2438 11.8692 38.7168 11.9499 39.2008 11.9499C39.8388 11.9499 40.3154 11.8435 40.6308 11.6309C40.9461 11.4109 41.1038 11.1212 41.1038 10.7619C41.1038 10.4979 41.0158 10.2852 40.8398 10.1239C40.6711 9.95521 40.4584 9.82687 40.2018 9.73887C39.9524 9.65087 39.5968 9.55187 39.1348 9.44187C38.5554 9.30254 38.0861 9.16321 37.7268 9.02387C37.3748 8.88454 37.0704 8.67187 36.8138 8.38587C36.5644 8.09254 36.4398 7.70021 36.4398 7.20887C36.4398 6.79821 36.5461 6.42787 36.7588 6.09787C36.9788 5.76787 37.3088 5.50387 37.7488 5.30587C38.1888 5.10787 38.7351 5.00887 39.3878 5.00887C39.8424 5.00887 40.2898 5.06754 40.7298 5.18487C41.1698 5.30221 41.5474 5.47087 41.8628 5.69087L41.4998 6.57087C41.1771 6.36554 40.8324 6.21154 40.4658 6.10887C40.0991 5.99887 39.7398 5.94387 39.3878 5.94387C38.7644 5.94387 38.2951 6.05754 37.9798 6.28487C37.6718 6.51221 37.5178 6.80554 37.5178 7.16487C37.5178 7.42887 37.6058 7.64521 37.7818 7.81387C37.9578 7.97521 38.1741 8.10354 38.4308 8.19887C38.6948 8.28687 39.0504 8.38221 39.4978 8.48487C40.0771 8.62421 40.5428 8.76354 40.8948 8.90287C41.2468 9.04221 41.5474 9.25487 41.7968 9.54087C42.0534 9.82687 42.1818 10.2119 42.1818 10.6959C42.1818 11.0992 42.0718 11.4695 41.8518 11.8069C41.6318 12.1369 41.2981 12.4009 40.8508 12.5989C40.4034 12.7895 39.8534 12.8849 39.2008 12.8849ZM45.2104 6.05387H42.5704V5.09687H48.9394V6.05387H46.2994V12.7969H45.2104V6.05387Z" fill="url(#paint2_linear_2075_28026)"/>
  <path d="M15.336 8.80387C15.7833 8.92854 16.1353 9.15587 16.392 9.48587C16.6487 9.80854 16.777 10.2192 16.777 10.7179C16.777 11.3852 16.524 11.8985 16.018 12.2579C15.5193 12.6172 14.7897 12.7969 13.829 12.7969H10.155V5.09687H13.609C14.489 5.09687 15.1673 5.27287 15.644 5.62487C16.128 5.97687 16.37 6.46454 16.37 7.08787C16.37 7.49121 16.2747 7.83954 16.084 8.13287C15.9007 8.42621 15.6513 8.64987 15.336 8.80387ZM11.255 5.98787V8.45187H13.51C14.0747 8.45187 14.5073 8.34921 14.808 8.14387C15.116 7.93121 15.27 7.62321 15.27 7.21987C15.27 6.81654 15.116 6.51221 14.808 6.30687C14.5073 6.09421 14.0747 5.98787 13.51 5.98787H11.255ZM13.785 11.9059C14.4083 11.9059 14.8777 11.8032 15.193 11.5979C15.5083 11.3925 15.666 11.0699 15.666 10.6299C15.666 9.77187 15.039 9.34287 13.785 9.34287H11.255V11.9059H13.785ZM21.9562 12.8849C21.1789 12.8849 20.4785 12.7162 19.8552 12.3789C19.2319 12.0342 18.7405 11.5612 18.3812 10.9599C18.0292 10.3585 17.8532 9.68754 17.8532 8.94687C17.8532 8.20621 18.0292 7.53521 18.3812 6.93387C18.7405 6.33254 19.2319 5.86321 19.8552 5.52587C20.4785 5.18121 21.1789 5.00887 21.9562 5.00887C22.7262 5.00887 23.4229 5.18121 24.0462 5.52587C24.6695 5.86321 25.1572 6.33254 25.5092 6.93387C25.8612 7.52787 26.0372 8.19887 26.0372 8.94687C26.0372 9.69487 25.8612 10.3695 25.5092 10.9709C25.1572 11.5649 24.6695 12.0342 24.0462 12.3789C23.4229 12.7162 22.7262 12.8849 21.9562 12.8849ZM21.9562 11.9059C22.5209 11.9059 23.0269 11.7775 23.4742 11.5209C23.9289 11.2642 24.2845 10.9122 24.5412 10.4649C24.8052 10.0102 24.9372 9.50421 24.9372 8.94687C24.9372 8.38954 24.8052 7.88721 24.5412 7.43987C24.2845 6.98521 23.9289 6.62954 23.4742 6.37287C23.0269 6.11621 22.5209 5.98787 21.9562 5.98787C21.3915 5.98787 20.8782 6.11621 20.4162 6.37287C19.9615 6.62954 19.6022 6.98521 19.3382 7.43987C19.0815 7.88721 18.9532 8.38954 18.9532 8.94687C18.9532 9.50421 19.0815 10.0102 19.3382 10.4649C19.6022 10.9122 19.9615 11.2642 20.4162 11.5209C20.8782 11.7775 21.3915 11.9059 21.9562 11.9059ZM31.1945 12.8849C30.4171 12.8849 29.7168 12.7162 29.0935 12.3789C28.4701 12.0342 27.9788 11.5612 27.6195 10.9599C27.2675 10.3585 27.0915 9.68754 27.0915 8.94687C27.0915 8.20621 27.2675 7.53521 27.6195 6.93387C27.9788 6.33254 28.4701 5.86321 29.0935 5.52587C29.7168 5.18121 30.4171 5.00887 31.1945 5.00887C31.9645 5.00887 32.6611 5.18121 33.2845 5.52587C33.9078 5.86321 34.3955 6.33254 34.7475 6.93387C35.0995 7.52787 35.2755 8.19887 35.2755 8.94687C35.2755 9.69487 35.0995 10.3695 34.7475 10.9709C34.3955 11.5649 33.9078 12.0342 33.2845 12.3789C32.6611 12.7162 31.9645 12.8849 31.1945 12.8849ZM31.1945 11.9059C31.7591 11.9059 32.2651 11.7775 32.7125 11.5209C33.1671 11.2642 33.5228 10.9122 33.7795 10.4649C34.0435 10.0102 34.1755 9.50421 34.1755 8.94687C34.1755 8.38954 34.0435 7.88721 33.7795 7.43987C33.5228 6.98521 33.1671 6.62954 32.7125 6.37287C32.2651 6.11621 31.7591 5.98787 31.1945 5.98787C30.6298 5.98787 30.1165 6.11621 29.6545 6.37287C29.1998 6.62954 28.8405 6.98521 28.5765 7.43987C28.3198 7.88721 28.1915 8.38954 28.1915 8.94687C28.1915 9.50421 28.3198 10.0102 28.5765 10.4649C28.8405 10.9122 29.1998 11.2642 29.6545 11.5209C30.1165 11.7775 30.6298 11.9059 31.1945 11.9059ZM39.2008 12.8849C38.6214 12.8849 38.0604 12.7969 37.5178 12.6209C36.9824 12.4375 36.5608 12.2029 36.2528 11.9169L36.6598 11.0589C36.9531 11.3229 37.3271 11.5392 37.7818 11.7079C38.2438 11.8692 38.7168 11.9499 39.2008 11.9499C39.8388 11.9499 40.3154 11.8435 40.6308 11.6309C40.9461 11.4109 41.1038 11.1212 41.1038 10.7619C41.1038 10.4979 41.0158 10.2852 40.8398 10.1239C40.6711 9.95521 40.4584 9.82687 40.2018 9.73887C39.9524 9.65087 39.5968 9.55187 39.1348 9.44187C38.5554 9.30254 38.0861 9.16321 37.7268 9.02387C37.3748 8.88454 37.0704 8.67187 36.8138 8.38587C36.5644 8.09254 36.4398 7.70021 36.4398 7.20887C36.4398 6.79821 36.5461 6.42787 36.7588 6.09787C36.9788 5.76787 37.3088 5.50387 37.7488 5.30587C38.1888 5.10787 38.7351 5.00887 39.3878 5.00887C39.8424 5.00887 40.2898 5.06754 40.7298 5.18487C41.1698 5.30221 41.5474 5.47087 41.8628 5.69087L41.4998 6.57087C41.1771 6.36554 40.8324 6.21154 40.4658 6.10887C40.0991 5.99887 39.7398 5.94387 39.3878 5.94387C38.7644 5.94387 38.2951 6.05754 37.9798 6.28487C37.6718 6.51221 37.5178 6.80554 37.5178 7.16487C37.5178 7.42887 37.6058 7.64521 37.7818 7.81387C37.9578 7.97521 38.1741 8.10354 38.4308 8.19887C38.6948 8.28687 39.0504 8.38221 39.4978 8.48487C40.0771 8.62421 40.5428 8.76354 40.8948 8.90287C41.2468 9.04221 41.5474 9.25487 41.7968 9.54087C42.0534 9.82687 42.1818 10.2119 42.1818 10.6959C42.1818 11.0992 42.0718 11.4695 41.8518 11.8069C41.6318 12.1369 41.2981 12.4009 40.8508 12.5989C40.4034 12.7895 39.8534 12.8849 39.2008 12.8849ZM45.2104 6.05387H42.5704V5.09687H48.9394V6.05387H46.2994V12.7969H45.2104V6.05387Z" fill="url(#paint3_linear_2075_28026)" fill-opacity="0.2"/>
  <defs>
  <linearGradient id="paint0_linear_2075_28026" x1="81.5021" y1="25.23" x2="69.2975" y2="-22.9309" gradientUnits="userSpaceOnUse">
  <stop stop-color="#645AFF"/>
  <stop offset="0.520746" stop-color="#E40C5B"/>
  <stop offset="0.985908" stop-color="#FF4C3B"/>
  </linearGradient>
  <linearGradient id="paint1_linear_2075_28026" x1="31.0058" y1="-7.395" x2="82.9192" y2="29.3562" gradientUnits="userSpaceOnUse">
  <stop stop-color="white"/>
  <stop offset="1" stop-color="white" stop-opacity="0"/>
  </linearGradient>
  <linearGradient id="paint2_linear_2075_28026" x1="65.2083" y1="21.0185" x2="56.0312" y2="-13.5626" gradientUnits="userSpaceOnUse">
  <stop stop-color="#645AFF"/>
  <stop offset="0.520746" stop-color="#E40C5B"/>
  <stop offset="0.985908" stop-color="#FF4C3B"/>
  </linearGradient>
  <linearGradient id="paint3_linear_2075_28026" x1="30.3833" y1="-2.54396" x2="67.2713" y2="22.3927" gradientUnits="userSpaceOnUse">
  <stop stop-color="white"/>
  <stop offset="1" stop-color="white" stop-opacity="0"/>
  </linearGradient>
  </defs>
  </svg>
  