<svg width="16" height="16" viewBox="0 0 16 16" fill="none" xmlns="http://www.w3.org/2000/svg">
<path fill-rule="evenodd" clip-rule="evenodd" d="M5.99399 9.8641L6.17696 8.08823L14.0691 0.196094C14.8478 0.493179 15.4709 1.10533 15.7826 1.87669L7.90885 9.75046L5.99399 9.8641ZM16 4.48773L9.05443 11.4333C8.88138 11.6064 8.65088 11.7099 8.40657 11.7244L4.9379 11.9303C4.32234 11.9668 3.82072 11.443 3.88392 10.8296L4.22391 7.52985C4.24746 7.30125 4.34903 7.08773 4.51153 6.92523L11.4368 0H3C1.34315 0 0 1.34315 0 3V13C0 14.6569 1.34315 16 3 16H13C14.6569 16 16 14.6569 16 13V4.48773Z" fill="#BDBDBD"/>
</svg>
