<svg width="16" height="18" viewBox="0 0 16 18" fill="none" xmlns="http://www.w3.org/2000/svg">
<path fill-rule="evenodd" clip-rule="evenodd" d="M2.43811 16.5612C2.96505 17.4237 3.91529 17.9994 4.99998 17.9994H13C14.6568 17.9994 16 16.6562 16 14.9994V5.99937C16 4.91468 15.4243 3.96444 14.5618 3.4375C14.8398 3.89245 15 4.4272 15 4.99937V13.9994C15 15.6562 13.6568 16.9994 12 16.9994H3.99998C3.42781 16.9994 2.89306 16.8392 2.43811 16.5612Z" fill="#BDBDBD"/>
<path fill-rule="evenodd" clip-rule="evenodd" d="M3 0C1.34315 0 0 1.34315 0 3V13C0 14.6569 1.34315 16 3 16H11C12.6569 16 14 14.6569 14 13V3C14 1.34315 12.6569 0 11 0H3ZM7 12C6.44772 12 6 11.5523 6 11V9H4C3.44772 9 3 8.55228 3 8C3 7.44772 3.44772 7 4 7H6V5C6 4.44772 6.44772 4 7 4C7.55228 4 8 4.44772 8 5V7H10C10.5523 7 11 7.44772 11 8C11 8.55228 10.5523 9 10 9H8V11C8 11.5523 7.55228 12 7 12Z" fill="#BDBDBD"/>
</svg>
