<svg width="24" height="24" viewBox="0 0 24 24" fill="none" xmlns="http://www.w3.org/2000/svg">
<path d="M20.069 15.4978C19.9307 15.8112 19.8895 16.1588 19.9506 16.4959C20.0117 16.8329 20.1724 17.1439 20.4119 17.3888L20.4742 17.4511C20.6674 17.6441 20.8207 17.8732 20.9253 18.1255C21.0298 18.3778 21.0837 18.6482 21.0837 18.9212C21.0837 19.1943 21.0298 19.4647 20.9253 19.7169C20.8207 19.9692 20.6674 20.1984 20.4742 20.3913C20.2812 20.5845 20.0521 20.7378 19.7998 20.8424C19.5476 20.947 19.2772 21.0008 19.0041 21.0008C18.731 21.0008 18.4606 20.947 18.2084 20.8424C17.9561 20.7378 17.7269 20.5845 17.534 20.3913L17.4716 20.329C17.2268 20.0895 16.9158 19.9288 16.5787 19.8677C16.2417 19.8066 15.8941 19.8479 15.5807 19.9862C15.2734 20.1179 15.0113 20.3365 14.8268 20.6153C14.6422 20.894 14.5431 21.2207 14.5418 21.555V21.7316C14.5418 22.2827 14.3228 22.8112 13.9331 23.2009C13.5435 23.5906 13.0149 23.8095 12.4638 23.8095C11.9127 23.8095 11.3842 23.5906 10.9945 23.2009C10.6048 22.8112 10.3859 22.2827 10.3859 21.7316V21.6381C10.3779 21.2942 10.2666 20.9607 10.0664 20.6809C9.86633 20.4011 9.58668 20.188 9.26384 20.0693C8.95047 19.931 8.60286 19.8897 8.26582 19.9508C7.92879 20.0119 7.61779 20.1726 7.37293 20.4121L7.31059 20.4745C7.11761 20.6677 6.88844 20.8209 6.63618 20.9255C6.38392 21.0301 6.11353 21.0839 5.84046 21.0839C5.56739 21.0839 5.297 21.0301 5.04474 20.9255C4.79248 20.8209 4.56331 20.6677 4.37033 20.4745C4.17713 20.2815 4.02387 20.0523 3.9193 19.8001C3.81473 19.5478 3.7609 19.2774 3.7609 19.0043C3.7609 18.7313 3.81473 18.4609 3.9193 18.2086C4.02387 17.9564 4.17713 17.7272 4.37033 17.5342L4.43267 17.4719C4.67219 17.227 4.83286 16.916 4.89397 16.579C4.95508 16.2419 4.91383 15.8943 4.77552 15.581C4.64382 15.2737 4.42514 15.0116 4.1464 14.827C3.86765 14.6424 3.54102 14.5433 3.20669 14.542H3.03007C2.47897 14.542 1.95044 14.3231 1.56076 13.9334C1.17107 13.5437 0.952148 13.0152 0.952148 12.4641C0.952148 11.913 1.17107 11.3845 1.56076 10.9948C1.95044 10.6051 2.47897 10.3862 3.03007 10.3862H3.12358C3.46747 10.3781 3.80098 10.2668 4.08077 10.0667C4.36056 9.86658 4.57367 9.58692 4.69241 9.26408C4.83071 8.95071 4.87196 8.6031 4.81085 8.26607C4.74974 7.92903 4.58907 7.61803 4.34955 7.37317L4.28721 7.31083C4.09402 7.11785 3.94075 6.88868 3.83618 6.63642C3.73161 6.38417 3.67779 6.11377 3.67779 5.8407C3.67779 5.56763 3.73161 5.29724 3.83618 5.04498C3.94075 4.79273 4.09402 4.56356 4.28721 4.37057C4.4802 4.17738 4.70937 4.02411 4.96162 3.91954C5.21388 3.81497 5.48427 3.76115 5.75734 3.76115C6.03041 3.76115 6.30081 3.81497 6.55306 3.91954C6.80532 4.02411 7.03449 4.17738 7.22747 4.37057L7.28981 4.43291C7.53467 4.67243 7.84567 4.8331 8.1827 4.89421C8.51974 4.95533 8.86735 4.91407 9.18072 4.77577H9.26384C9.57113 4.64407 9.8332 4.42538 10.0178 4.14664C10.2024 3.8679 10.3015 3.54126 10.3028 3.20694V3.03031C10.3028 2.47922 10.5217 1.95069 10.9114 1.561C11.3011 1.17132 11.8296 0.952393 12.3807 0.952393C12.9318 0.952393 13.4603 1.17132 13.85 1.561C14.2397 1.95069 14.4586 2.47922 14.4586 3.03031V3.12382C14.46 3.45814 14.559 3.78478 14.7436 4.06353C14.9282 4.34227 15.1903 4.56095 15.4976 4.69265C15.811 4.83095 16.1586 4.87221 16.4956 4.8111C16.8326 4.74999 17.1436 4.58931 17.3885 4.34979L17.4508 4.28746C17.6438 4.09426 17.873 3.94099 18.1253 3.83642C18.3775 3.73185 18.6479 3.67803 18.921 3.67803C19.194 3.67803 19.4644 3.73185 19.7167 3.83642C19.969 3.94099 20.1981 4.09426 20.3911 4.28746C20.5843 4.48044 20.7376 4.70961 20.8421 4.96187C20.9467 5.21412 21.0005 5.48452 21.0005 5.75759C21.0005 6.03066 20.9467 6.30105 20.8421 6.55331C20.7376 6.80556 20.5843 7.03473 20.3911 7.22772L20.3288 7.29005C20.0893 7.53492 19.9286 7.84591 19.8675 8.18295C19.8064 8.51998 19.8476 8.8676 19.9859 9.18096V9.26408C20.1176 9.57137 20.3363 9.83345 20.615 10.018C20.8938 10.2026 21.2204 10.3017 21.5547 10.303H21.7314C22.2825 10.303 22.811 10.522 23.2007 10.9117C23.5904 11.3013 23.8093 11.8299 23.8093 12.381C23.8093 12.9321 23.5904 13.4606 23.2007 13.8503C22.811 14.24 22.2825 14.4589 21.7314 14.4589H21.6379C21.3035 14.4602 20.9769 14.5593 20.6982 14.7439C20.4194 14.9285 20.2007 15.1906 20.069 15.4978Z" fill="#D6D3DE"/>
<path d="M12.3806 15.4979C14.102 15.4979 15.4974 14.1024 15.4974 12.381C15.4974 10.6596 14.102 9.2641 12.3806 9.2641C10.6591 9.2641 9.26367 10.6596 9.26367 12.381C9.26367 14.1024 10.6591 15.4979 12.3806 15.4979Z" fill="#F1F0F2"/>
</svg>
