<svg width="44" height="44" viewBox="0 0 44 44" fill="none" xmlns="http://www.w3.org/2000/svg">
<rect x="43.5" y="0.5" width="43" height="43" rx="11.5" transform="rotate(90 43.5 0.5)" stroke="#645AFF"/>
<path d="M25.963 8.72761L25.963 35.2718C25.963 35.7334 26.2391 36.1496 26.6629 36.3265C27.0868 36.5034 27.5748 36.4053 27.8989 36.079L33.8057 30.1327C34.2487 29.6867 34.2487 28.9643 33.8057 28.5183C33.363 28.0723 32.6446 28.0723 32.202 28.5183L28.2311 32.5157L28.2311 8.72761C28.2311 8.09729 27.7235 7.58594 27.0971 7.58594C26.4706 7.58594 25.963 8.09729 25.963 8.72761Z" fill="#645AFF"/>
<path opacity="0.496443" d="M18.0715 35.2718L18.0715 8.72758C18.0715 8.26588 17.7953 7.84963 17.3716 7.67288C16.9478 7.49616 16.4599 7.59385 16.1356 7.9204L10.2288 13.8667C10.0073 14.0897 9.89656 14.3818 9.89656 14.6739C9.89656 14.966 10.0073 15.2581 10.2288 15.4811C10.6715 15.9271 11.3899 15.9271 11.8325 15.4811L15.8034 11.4837L15.8034 35.2718C15.8034 35.9021 16.311 36.4135 16.9374 36.4135C17.5639 36.4135 18.0715 35.9021 18.0715 35.2718Z" fill="#645AFF"/>
</svg>
