<svg width="64" height="64" viewBox="0 0 64 64" fill="none" xmlns="http://www.w3.org/2000/svg">
<circle cx="32" cy="32" r="31.5" fill="white" stroke="#D6D3DE"/>
<path fill-rule="evenodd" clip-rule="evenodd" d="M30 18C27.7909 18 26 19.7909 26 22V24C26 26.2091 27.7909 28 30 28H34C36.2091 28 38 26.2091 38 24V22C38 19.7909 36.2091 18 34 18H30ZM30 20C28.8954 20 28 20.8954 28 22V23C28 24.1046 28.8954 25 30 25H34C35.1046 25 36 24.1046 36 23V22C36 20.8954 35.1046 20 34 20H30Z" fill="#ABAAB9"/>
<path fill-rule="evenodd" clip-rule="evenodd" d="M18 27V30.116C18.4529 31.3331 19.6252 32.2 21 32.2H28V30C28 28.8954 28.8954 28 30 28H33C34.1046 28 35 28.8954 35 30V32.2H43C44.3748 32.2 45.5471 31.3331 46 30.116V27C46 24.7909 44.2091 23 42 23H22C19.7909 23 18 24.7909 18 27ZM28 33.8V34C28 35.1046 28.8954 36 30 36H33C34.1046 36 35 35.1046 35 34V33.8H43C44.1351 33.8 45.1782 33.406 46 32.7472V40C46 42.2091 44.2091 44 42 44H22C19.7909 44 18 42.2091 18 40V32.7472C18.8218 33.406 19.8649 33.8 21 33.8H28Z" fill="#ABAAB9"/>
<rect x="29" y="29" width="5" height="6" rx="1" fill="#ABAAB9"/>
</svg>
