<svg width="32" height="32" viewBox="0 0 32 32" fill="none" xmlns="http://www.w3.org/2000/svg">
<circle opacity="0.2" cx="16" cy="16" r="16" fill="#645AFF"/>
<path d="M21.88 19.04C21.88 20.12 21.48 21.04 20.68 21.8C19.8933 22.5467 18.7467 23 17.24 23.16V25.4H15.6V23.18C14.6133 23.1133 13.68 22.9333 12.8 22.64C11.92 22.3467 11.22 21.9733 10.7 21.52L11.6 19.5C12.0933 19.9 12.6933 20.24 13.4 20.52C14.1067 20.7867 14.84 20.9533 15.6 21.02V17.02C14.6533 16.7933 13.86 16.5467 13.22 16.28C12.5933 16 12.0667 15.6 11.64 15.08C11.2133 14.5467 11 13.8467 11 12.98C11 11.9 11.3933 10.98 12.18 10.22C12.9667 9.46 14.1067 9.00667 15.6 8.86V6.6H17.24V8.82C17.9867 8.86 18.7133 8.98667 19.42 9.2C20.14 9.41333 20.7667 9.69333 21.3 10.04L20.48 12.06C19.4667 11.4733 18.3867 11.1133 17.24 10.98V15.02C18.2 15.2467 18.9933 15.4933 19.62 15.76C20.26 16.0267 20.7933 16.4267 21.22 16.96C21.66 17.48 21.88 18.1733 21.88 19.04ZM13.58 12.86C13.58 13.3 13.7533 13.6533 14.1 13.92C14.4467 14.1867 14.9467 14.4133 15.6 14.6V11.04C14.92 11.1467 14.4133 11.36 14.08 11.68C13.7467 12 13.58 12.3933 13.58 12.86ZM17.24 20.98C17.9467 20.8733 18.4667 20.6667 18.8 20.36C19.1467 20.0533 19.32 19.6733 19.32 19.22C19.32 18.7667 19.14 18.4067 18.78 18.14C18.42 17.86 17.9067 17.6267 17.24 17.44V20.98Z" fill="white"/>
</svg>
