<svg width="66" height="66" viewBox="0 0 66 66" fill="none" xmlns="http://www.w3.org/2000/svg">
<path fill-rule="evenodd" clip-rule="evenodd" d="M29.3671 20.8894C28.8203 21.2889 28.8203 22.1049 29.3671 22.5044L35.7941 27.1995C36.4548 27.6821 37.384 27.2102 37.384 26.392V23.5048H45.4849C46.2573 23.5048 47.0786 24.2036 47.0786 25.3132V36.006H51.0786V25.3132C51.0786 22.2162 48.6819 19.5048 45.4849 19.5048H37.384V17.0018C37.384 16.1835 36.4548 15.7116 35.7941 16.1943L29.3671 20.8894ZM19.0229 16.4382C22.3492 16.4382 25.0457 19.1257 25.0457 22.4408C25.0457 25.7559 22.3492 28.4434 19.0229 28.4434C15.6965 28.4434 13 25.7559 13 22.4408C13 19.1257 15.6965 16.4382 19.0229 16.4382ZM46.9779 49.7434C50.3043 49.7434 53.0008 47.056 53.0008 43.7408C53.0008 40.4257 50.3043 37.7383 46.9779 37.7383C43.6516 37.7383 40.9551 40.4257 40.9551 43.7408C40.9551 47.056 43.6516 49.7434 46.9779 49.7434ZM36.8344 43.4541C37.3755 43.8538 37.3755 44.663 36.8344 45.0628L30.415 49.8045C29.7549 50.2921 28.8209 49.8208 28.8209 49.0002V46.4523H20.7125C17.5209 46.4523 15.1169 43.753 15.1169 40.6555V29.9952H19.1169V40.6555C19.1169 41.7519 19.9325 42.4523 20.7125 42.4523H28.8209V39.5167C28.8209 38.696 29.7549 38.2247 30.415 38.7123L36.8344 43.4541Z" fill="url(#paint0_linear_2110_43340)"/>
<circle cx="33" cy="33" r="32" stroke="#E0E0E0"/>
<defs>
<linearGradient id="paint0_linear_2110_43340" x1="54.9113" y1="119.706" x2="94.083" y2="95.1746" gradientUnits="userSpaceOnUse">
<stop stop-color="#FF4C3B"/>
<stop offset="1" stop-color="#E40C5B"/>
</linearGradient>
</defs>
</svg>
