<svg width="64" height="73" viewBox="0 0 64 73" fill="none" xmlns="http://www.w3.org/2000/svg">
  <rect x="9" y="32" width="46" height="32" rx="4" fill="url(#paint0_linear_2033_23871)"/>
  <g opacity="0.8">
  <path d="M30.8494 0.725421C31.2412 0.326778 31.8838 0.326776 32.2757 0.72542L42.865 11.4979C43.4866 12.1303 43.0386 13.1989 42.1518 13.1989H20.9732C20.0865 13.1989 19.6385 12.1303 20.2601 11.4979L30.8494 0.725421Z" fill="url(#paint1_linear_2033_23871)"/>
  <path d="M30.8494 0.725421C31.2412 0.326778 31.8838 0.326776 32.2757 0.72542L42.865 11.4979C43.4866 12.1303 43.0386 13.1989 42.1518 13.1989H20.9732C20.0865 13.1989 19.6385 12.1303 20.2601 11.4979L30.8494 0.725421Z" fill="white" fill-opacity="0.1"/>
  <rect width="6.48726" height="13.199" transform="matrix(1 0 0 -1 28.3188 26.3977)" fill="url(#paint2_linear_2033_23871)"/>
  <rect width="6.48726" height="13.199" transform="matrix(1 0 0 -1 28.3188 26.3977)" fill="white" fill-opacity="0.1"/>
  </g>
  <g opacity="0.5">
  <path fill-rule="evenodd" clip-rule="evenodd" d="M43.5997 25.4198H55.9445C58.1536 25.4198 59.9445 27.2107 59.9445 29.4198V64.7787C59.9445 66.9878 58.1536 68.7787 55.9445 68.7787H8.05566C5.84653 68.7787 4.05566 66.9878 4.05566 64.7787V29.4198C4.05566 27.2107 5.84653 25.4198 8.05566 25.4198H20.5334V21.4198H8.05566C3.63739 21.4198 0.0556641 25.0015 0.0556641 29.4198V64.7787C0.0556641 69.197 3.63739 72.7787 8.05566 72.7787H55.9445C60.3627 72.7787 63.9445 69.197 63.9445 64.7787V29.4198C63.9445 25.0015 60.3627 21.4198 55.9445 21.4198H43.5997V25.4198Z" fill="url(#paint3_linear_2033_23871)"/>
  <path fill-rule="evenodd" clip-rule="evenodd" d="M43.5997 25.4198H55.9445C58.1536 25.4198 59.9445 27.2107 59.9445 29.4198V64.7787C59.9445 66.9878 58.1536 68.7787 55.9445 68.7787H8.05566C5.84653 68.7787 4.05566 66.9878 4.05566 64.7787V29.4198C4.05566 27.2107 5.84653 25.4198 8.05566 25.4198H20.5334V21.4198H8.05566C3.63739 21.4198 0.0556641 25.0015 0.0556641 29.4198V64.7787C0.0556641 69.197 3.63739 72.7787 8.05566 72.7787H55.9445C60.3627 72.7787 63.9445 69.197 63.9445 64.7787V29.4198C63.9445 25.0015 60.3627 21.4198 55.9445 21.4198H43.5997V25.4198Z" fill="url(#paint4_linear_2033_23871)" fill-opacity="0.2"/>
  </g>
  <ellipse opacity="0.8" cx="32" cy="48.1384" rx="8" ry="8.13839" fill="white"/>
  <defs>
  <linearGradient id="paint0_linear_2033_23871" x1="32" y1="32" x2="32.2463" y2="65.5668" gradientUnits="userSpaceOnUse">
  <stop stop-color="#645AFF"/>
  <stop offset="1" stop-color="#645AFF" stop-opacity="0.15"/>
  </linearGradient>
  <linearGradient id="paint1_linear_2033_23871" x1="49.4205" y1="15.438" x2="35.42" y2="-8.26904" gradientUnits="userSpaceOnUse">
  <stop stop-color="#645AFF"/>
  <stop offset="0.60257" stop-color="#E40C5B"/>
  <stop offset="1" stop-color="#FF4C3B"/>
  </linearGradient>
  <linearGradient id="paint2_linear_2033_23871" x1="7.70812" y1="15.4381" x2="-3.77074" y2="10.5788" gradientUnits="userSpaceOnUse">
  <stop stop-color="#645AFF"/>
  <stop offset="0.60257" stop-color="#E40C5B"/>
  <stop offset="1" stop-color="#FF4C3B"/>
  </linearGradient>
  <linearGradient id="paint3_linear_2033_23871" x1="89.8327" y1="0.79064" x2="22.7453" y2="102.994" gradientUnits="userSpaceOnUse">
  <stop stop-color="#645AFF"/>
  <stop offset="0.520746" stop-color="#E40C5B"/>
  <stop offset="0.985908" stop-color="#FF4C3B"/>
  </linearGradient>
  <linearGradient id="paint4_linear_2033_23871" x1="34.2096" y1="93.8786" x2="114.086" y2="72.048" gradientUnits="userSpaceOnUse">
  <stop stop-color="white"/>
  <stop offset="1" stop-color="white" stop-opacity="0"/>
  </linearGradient>
  </defs>
  </svg>
  