<svg width="64" height="72" viewBox="0 0 64 72" fill="none" xmlns="http://www.w3.org/2000/svg">
  <g opacity="0.5">
  <path fill-rule="evenodd" clip-rule="evenodd" d="M4 10C4 8.89543 3.10457 8 2 8C0.895433 8 2.71011e-06 8.89543 2.71011e-06 10L0 70C-1.20706e-08 70.2761 0.0559644 70.5392 0.15717 70.7785C0.460786 71.4963 1.17157 72 2 72H62C63.1046 72 64 71.1046 64 70C64 68.8954 63.1046 68 62 68H4L4 10Z" fill="url(#paint0_linear_2033_23850)"/>
  <path fill-rule="evenodd" clip-rule="evenodd" d="M4 10C4 8.89543 3.10457 8 2 8C0.895433 8 2.71011e-06 8.89543 2.71011e-06 10L0 70C-1.20706e-08 70.2761 0.0559644 70.5392 0.15717 70.7785C0.460786 71.4963 1.17157 72 2 72H62C63.1046 72 64 71.1046 64 70C64 68.8954 63.1046 68 62 68H4L4 10Z" fill="url(#paint1_linear_2033_23850)" fill-opacity="0.2"/>
  </g>
  <path d="M10 48C10 46.8954 10.8954 46 12 46H20C21.1046 46 22 46.8954 22 48V68H10V48Z" fill="url(#paint2_linear_2033_23850)"/>
  <path d="M26 36C26 34.8954 26.8954 34 28 34H36C37.1046 34 38 34.8954 38 36V68H26V36Z" fill="url(#paint3_linear_2033_23850)"/>
  <path d="M42 28C42 26.8954 42.8954 26 44 26H52C53.1046 26 54 26.8954 54 28V68H42V28Z" fill="url(#paint4_linear_2033_23850)"/>
  <g opacity="0.8">
  <rect x="14.9188" y="30.9026" width="5.84607" height="33.6794" rx="2.92304" transform="rotate(-120 14.9188 30.9026)" fill="url(#paint5_linear_2033_23850)"/>
  <rect x="14.9188" y="30.9026" width="5.84607" height="33.6794" rx="2.92304" transform="rotate(-120 14.9188 30.9026)" fill="white" fill-opacity="0.1"/>
  <path d="M50.2774 7.86195C50.6233 7.20981 50.1676 6.42055 49.4299 6.39403L38.8051 6.0121C38.0197 5.98387 37.5102 6.83088 37.9031 7.51145L43.5463 17.2857C43.9393 17.9663 44.9276 17.9485 45.2958 17.2543L50.2774 7.86195Z" fill="url(#paint6_linear_2033_23850)"/>
  <path d="M50.2774 7.86195C50.6233 7.20981 50.1676 6.42055 49.4299 6.39403L38.8051 6.0121C38.0197 5.98387 37.5102 6.83088 37.9031 7.51145L43.5463 17.2857C43.9393 17.9663 44.9276 17.9485 45.2958 17.2543L50.2774 7.86195Z" fill="white" fill-opacity="0.1"/>
  </g>
  <defs>
  <linearGradient id="paint0_linear_2033_23850" x1="89.9333" y1="97.7067" x2="0.655503" y2="-11.6286" gradientUnits="userSpaceOnUse">
  <stop stop-color="#645AFF"/>
  <stop offset="0.520746" stop-color="#E40C5B"/>
  <stop offset="0.985908" stop-color="#FF4C3B"/>
  </linearGradient>
  <linearGradient id="paint1_linear_2033_23850" x1="34.2133" y1="-18.2933" x2="116.246" y2="-0.270446" gradientUnits="userSpaceOnUse">
  <stop stop-color="white"/>
  <stop offset="1" stop-color="white" stop-opacity="0"/>
  </linearGradient>
  <linearGradient id="paint2_linear_2033_23850" x1="16" y1="46" x2="16.446" y2="69.0698" gradientUnits="userSpaceOnUse">
  <stop stop-color="#645AFF"/>
  <stop offset="1" stop-color="#645AFF" stop-opacity="0.15"/>
  </linearGradient>
  <linearGradient id="paint3_linear_2033_23850" x1="32" y1="34" x2="33.0647" y2="69.6348" gradientUnits="userSpaceOnUse">
  <stop stop-color="#645AFF"/>
  <stop offset="1" stop-color="#645AFF" stop-opacity="0.15"/>
  </linearGradient>
  <linearGradient id="paint4_linear_2033_23850" x1="48" y1="26" x2="49.624" y2="69.9988" gradientUnits="userSpaceOnUse">
  <stop stop-color="#645AFF"/>
  <stop offset="1" stop-color="#645AFF" stop-opacity="0.15"/>
  </linearGradient>
  <linearGradient id="paint5_linear_2033_23850" x1="21.8651" y1="70.2955" x2="9.93371" y2="68.5117" gradientUnits="userSpaceOnUse">
  <stop stop-color="#645AFF"/>
  <stop offset="0.60257" stop-color="#E40C5B"/>
  <stop offset="1" stop-color="#FF4C3B"/>
  </linearGradient>
  <linearGradient id="paint6_linear_2033_23850" x1="33.8506" y1="4.52788" x2="54.456" y2="9.21981" gradientUnits="userSpaceOnUse">
  <stop stop-color="#645AFF"/>
  <stop offset="0.60257" stop-color="#E40C5B"/>
  <stop offset="1" stop-color="#FF4C3B"/>
  </linearGradient>
  </defs>
  </svg>
  