<svg width="72" height="72" viewBox="0 0 72 72" fill="none" xmlns="http://www.w3.org/2000/svg">
  <g opacity="0.5">
  <rect x="2" y="2" width="68" height="68" rx="10" stroke="url(#paint0_linear_2090_32841)" stroke-width="4"/>
  <rect x="2" y="2" width="68" height="68" rx="10" stroke="url(#paint1_linear_2090_32841)" stroke-opacity="0.2" stroke-width="4"/>
  </g>
  <path d="M20.0043 23.1285C20.0043 23.1285 24.8084 22.5675 27.8867 21.6443C30.9649 20.721 35.769 18.4001 35.769 18.4001C35.769 18.4001 40.5731 20.721 43.6513 21.6443C46.7296 22.5675 51.5337 23.1285 51.5337 23.1285C51.5337 23.1285 55.5639 47.9711 35.769 53.6001C15.9741 47.9711 20.0043 23.1285 20.0043 23.1285Z" fill="url(#paint2_linear_2090_32841)"/>
  <path d="M27.7342 34.5334L35.4342 41.1334L45.3342 29.4001" stroke="white" stroke-opacity="0.8" stroke-width="3"/>
  <path d="M16.415 19.9105C16.415 19.9105 22.3223 19.2093 26.1075 18.0552C29.8926 16.9011 35.8 14 35.8 14C35.8 14 41.7074 16.9011 45.4925 18.0552C49.2777 19.2093 55.185 19.9105 55.185 19.9105C55.185 19.9105 60.1408 50.9638 35.8 58C11.4592 50.9638 16.415 19.9105 16.415 19.9105Z" stroke="url(#paint3_linear_2090_32841)" stroke-width="3"/>
  <path d="M16.415 19.9105C16.415 19.9105 22.3223 19.2093 26.1075 18.0552C29.8926 16.9011 35.8 14 35.8 14C35.8 14 41.7074 16.9011 45.4925 18.0552C49.2777 19.2093 55.185 19.9105 55.185 19.9105C55.185 19.9105 60.1408 50.9638 35.8 58C11.4592 50.9638 16.415 19.9105 16.415 19.9105Z" stroke="white" stroke-opacity="0.1" stroke-width="3"/>
  <defs>
  <linearGradient id="paint0_linear_2090_32841" x1="93.9333" y1="93.7067" x2="4.6555" y2="-15.6286" gradientUnits="userSpaceOnUse">
  <stop stop-color="#645AFF"/>
  <stop offset="0.520746" stop-color="#E40C5B"/>
  <stop offset="0.985908" stop-color="#FF4C3B"/>
  </linearGradient>
  <linearGradient id="paint1_linear_2090_32841" x1="38.2133" y1="-22.2933" x2="120.246" y2="-4.27045" gradientUnits="userSpaceOnUse">
  <stop stop-color="white"/>
  <stop offset="1" stop-color="white" stop-opacity="0"/>
  </linearGradient>
  <linearGradient id="paint2_linear_2090_32841" x1="35.769" y1="18.4001" x2="36.1946" y2="55.3206" gradientUnits="userSpaceOnUse">
  <stop stop-color="#645AFF"/>
  <stop offset="1" stop-color="#645AFF" stop-opacity="0.15"/>
  </linearGradient>
  <linearGradient id="paint3_linear_2090_32841" x1="63.0525" y1="65.4643" x2="11.4392" y2="25.4553" gradientUnits="userSpaceOnUse">
  <stop stop-color="#645AFF"/>
  <stop offset="0.60257" stop-color="#E40C5B"/>
  <stop offset="1" stop-color="#FF4C3B"/>
  </linearGradient>
  </defs>
  </svg>
  