<svg width="64" height="64" viewBox="0 0 64 64" fill="none" xmlns="http://www.w3.org/2000/svg">
<circle cx="32" cy="32" r="32" fill="#E6007A"/>
<path d="M51.295 19.5266C50.6388 19.0086 49.8563 18.3011 48.4303 18.1242C47.0926 17.9474 45.7297 18.8444 44.8085 19.4381C43.8872 20.0319 42.1457 21.7753 41.4264 22.3059C40.7071 22.8365 38.8646 23.3292 35.899 25.1106C32.9333 26.8919 21.298 34.3709 21.298 34.3709L24.3267 34.4088L10.8236 41.3698H12.1739L10.2305 42.8479C10.2305 42.8479 11.9467 43.3027 13.3854 42.3931V42.81C13.3854 42.81 29.4629 36.468 32.5674 38.1104L30.6744 38.6663C30.8385 38.6663 33.8924 38.8684 33.8924 38.8684C33.9665 39.5015 34.1791 40.1105 34.515 40.652C34.8509 41.1935 35.3019 41.6543 35.8359 42.0015C37.6783 43.2143 37.7162 43.8839 37.7162 43.8839C37.7162 43.8839 36.7571 44.2755 36.7571 44.7682C36.7571 44.7682 38.1705 44.3387 39.483 44.3766C40.3159 44.4082 41.1421 44.5397 41.9438 44.7682C41.9438 44.7682 41.8428 44.2376 40.5682 43.8839C39.2937 43.5301 38.0317 42.1405 37.4133 41.3825C37.0346 40.9 36.7877 40.3271 36.697 39.7202C36.6063 39.1133 36.6748 38.4932 36.8959 37.9209C37.3376 36.7712 38.8772 36.1396 42.0574 34.4972C45.8054 32.5517 46.6636 31.1115 47.1936 29.9871C47.7236 28.8627 48.506 26.6266 48.9477 25.578C49.503 24.2262 50.1845 23.5061 50.7523 23.0766C51.3202 22.647 53.8442 21.6995 53.8442 21.6995C53.8442 21.6995 51.9134 20.0193 51.295 19.5266Z" fill="white"/>
</svg>
