<svg width="61" height="64" viewBox="0 0 61 64" fill="none" xmlns="http://www.w3.org/2000/svg">
<g clip-path="url(#clip0_2052_26543)">
<path d="M30.2835 13.4235C36.6985 13.4235 41.899 10.4186 41.899 6.71176C41.899 3.00496 36.6985 0 30.2835 0C23.8684 0 18.668 3.00496 18.668 6.71176C18.668 10.4186 23.8684 13.4235 30.2835 13.4235Z" fill="#E6007A"/>
<path d="M30.2835 63.9958C36.6985 63.9958 41.899 60.9908 41.899 57.284C41.899 53.5772 36.6985 50.5723 30.2835 50.5723C23.8684 50.5723 18.668 53.5772 18.668 57.284C18.668 60.9908 23.8684 63.9958 30.2835 63.9958Z" fill="#E6007A"/>
<path d="M14.0963 22.7146C17.3038 17.1952 17.283 11.2173 14.0498 9.36264C10.8166 7.50798 5.59535 10.4789 2.38782 15.9983C-0.819707 21.5178 -0.798889 27.4957 2.43432 29.3503C5.66753 31.205 10.8888 28.2341 14.0963 22.7146Z" fill="#E6007A"/>
<path d="M58.1744 47.9972C61.3819 42.4778 61.3629 36.5009 58.1318 34.6475C54.9008 32.7941 49.6813 35.766 46.4738 41.2855C43.2662 46.8049 43.2853 52.7818 46.5163 54.6352C49.7474 56.4886 54.9669 53.5167 58.1744 47.9972Z" fill="#E6007A"/>
<path d="M14.0518 54.6335C17.285 52.7788 17.3058 46.8009 14.0983 41.2815C10.8907 35.762 5.66949 32.7911 2.43628 34.6458C-0.796934 36.5004 -0.817752 42.4783 2.38978 47.9978C5.59731 53.5172 10.8186 56.4881 14.0518 54.6335Z" fill="#E6007A"/>
<path d="M58.1337 29.3506C61.3647 27.4972 61.3837 21.5203 58.1762 16.0008C54.9687 10.4814 49.7492 7.50946 46.5182 9.36286C43.2872 11.2163 43.2682 17.1932 46.4757 22.7126C49.6832 28.2321 54.9027 31.204 58.1337 29.3506Z" fill="#E6007A"/>
</g>
<defs>
<clipPath id="clip0_2052_26543">
<rect width="60.5714" height="64" fill="white"/>
</clipPath>
</defs>
</svg>
