<svg width="52" height="39" viewBox="0 0 52 39" fill="none" xmlns="http://www.w3.org/2000/svg">
<path d="M26.0006 7.63318L36.3929 13.6332V25.6332L26.0006 31.6332L15.6083 25.6332V13.6332L26.0006 7.63318Z" fill="url(#paint0_linear_1216_13454)"/>
<g opacity="0.8">
<circle r="3.16174" transform="matrix(0.712229 -0.701947 0.712229 0.701947 47.4974 15.7899)" fill="url(#paint1_linear_1216_13454)"/>
<circle r="3.16174" transform="matrix(0.712229 -0.701947 0.712229 0.701947 47.4974 15.7899)" fill="white" fill-opacity="0.1"/>
</g>
<g opacity="0.5">
<path fill-rule="evenodd" clip-rule="evenodd" d="M27.0489 1.43551L26.2962 0.981323L25.5322 1.4161L10.3633 10.0474L9.6051 10.4788V11.3512V22.3365C9.6051 23.1649 10.2767 23.8365 11.1051 23.8365C11.9335 23.8365 12.6051 23.1649 12.6051 22.3365V12.2235L26.2517 4.45831L44.3407 15.3732C44.4298 14.7139 44.7314 14.0772 45.2454 13.5706C45.5116 13.3082 45.8131 13.1021 46.1349 12.952L27.0489 1.43551Z" fill="url(#paint2_linear_1216_13454)"/>
<path fill-rule="evenodd" clip-rule="evenodd" d="M27.0489 1.43551L26.2962 0.981323L25.5322 1.4161L10.3633 10.0474L9.6051 10.4788V11.3512V22.3365C9.6051 23.1649 10.2767 23.8365 11.1051 23.8365C11.9335 23.8365 12.6051 23.1649 12.6051 22.3365V12.2235L26.2517 4.45831L44.3407 15.3732C44.4298 14.7139 44.7314 14.0772 45.2454 13.5706C45.5116 13.3082 45.8131 13.1021 46.1349 12.952L27.0489 1.43551Z" fill="url(#paint3_linear_1216_13454)" fill-opacity="0.2"/>
</g>
<g opacity="0.8">
<circle r="3.16174" transform="matrix(-0.712229 0.701947 -0.712229 -0.701947 4.50429 24.1752)" fill="url(#paint4_linear_1216_13454)"/>
<circle r="3.16174" transform="matrix(-0.712229 0.701947 -0.712229 -0.701947 4.50429 24.1752)" fill="white" fill-opacity="0.1"/>
</g>
<g opacity="0.5">
<path fill-rule="evenodd" clip-rule="evenodd" d="M24.9528 38.5296L25.7055 38.9838L26.4696 38.549L41.6384 29.9177L42.3966 29.4862V28.6139V17.6286C42.3966 16.8002 41.725 16.1286 40.8966 16.1286C40.0682 16.1286 39.3966 16.8002 39.3966 17.6286V27.7416L25.75 35.5068L7.66103 24.5919C7.57192 25.2512 7.27035 25.8879 6.7563 26.3945C6.49014 26.6568 6.18859 26.863 5.86679 27.0131L24.9528 38.5296Z" fill="url(#paint5_linear_1216_13454)"/>
<path fill-rule="evenodd" clip-rule="evenodd" d="M24.9528 38.5296L25.7055 38.9838L26.4696 38.549L41.6384 29.9177L42.3966 29.4862V28.6139V17.6286C42.3966 16.8002 41.725 16.1286 40.8966 16.1286C40.0682 16.1286 39.3966 16.8002 39.3966 17.6286V27.7416L25.75 35.5068L7.66103 24.5919C7.57192 25.2512 7.27035 25.8879 6.7563 26.3945C6.49014 26.6568 6.18859 26.863 5.86679 27.0131L24.9528 38.5296Z" fill="url(#paint6_linear_1216_13454)" fill-opacity="0.2"/>
</g>
<defs>
<linearGradient id="paint0_linear_1216_13454" x1="26.0006" y1="7.63318" x2="26.2661" y2="32.8068" gradientUnits="userSpaceOnUse">
<stop stop-color="#645AFF"/>
<stop offset="1" stop-color="#645AFF" stop-opacity="0"/>
</linearGradient>
<linearGradient id="paint1_linear_1216_13454" x1="7.51352" y1="7.39621" x2="-0.0613661" y2="0.871979" gradientUnits="userSpaceOnUse">
<stop stop-color="#645AFF"/>
<stop offset="0.60257" stop-color="#E40C5B"/>
<stop offset="1" stop-color="#FF4C3B"/>
</linearGradient>
<linearGradient id="paint2_linear_1216_13454" x1="60.9371" y1="33.0166" x2="34.5713" y2="-18.5919" gradientUnits="userSpaceOnUse">
<stop stop-color="#645AFF"/>
<stop offset="0.520746" stop-color="#E40C5B"/>
<stop offset="0.985908" stop-color="#FF4C3B"/>
</linearGradient>
<linearGradient id="paint3_linear_1216_13454" x1="29.1333" y1="-8.40834" x2="72.828" y2="6.9353" gradientUnits="userSpaceOnUse">
<stop stop-color="white"/>
<stop offset="1" stop-color="white" stop-opacity="0"/>
</linearGradient>
<linearGradient id="paint4_linear_1216_13454" x1="7.51352" y1="7.39621" x2="-0.0613661" y2="0.871979" gradientUnits="userSpaceOnUse">
<stop stop-color="#645AFF"/>
<stop offset="0.60257" stop-color="#E40C5B"/>
<stop offset="1" stop-color="#FF4C3B"/>
</linearGradient>
<linearGradient id="paint5_linear_1216_13454" x1="-8.93539" y1="6.94845" x2="17.4305" y2="58.557" gradientUnits="userSpaceOnUse">
<stop stop-color="#645AFF"/>
<stop offset="0.520746" stop-color="#E40C5B"/>
<stop offset="0.985908" stop-color="#FF4C3B"/>
</linearGradient>
<linearGradient id="paint6_linear_1216_13454" x1="22.8684" y1="48.3734" x2="-20.8263" y2="33.0298" gradientUnits="userSpaceOnUse">
<stop stop-color="white"/>
<stop offset="1" stop-color="white" stop-opacity="0"/>
</linearGradient>
</defs>
</svg>
