<svg width="44" height="40" viewBox="0 0 44 40" fill="none" xmlns="http://www.w3.org/2000/svg">
<g opacity="0.8">
<circle cx="35" cy="28" r="9" fill="url(#paint0_linear_1216_13643)"/>
<circle cx="35" cy="28" r="9" fill="white" fill-opacity="0.1"/>
</g>
<g opacity="0.5">
<path fill-rule="evenodd" clip-rule="evenodd" d="M34.0426 2.10071H8.04346C4.17746 2.10071 1.04346 5.23471 1.04346 9.10071V27.9556C1.04346 31.8216 4.17746 34.9556 8.04346 34.9556H25.2208C24.5701 34.0423 24.0441 33.034 23.6677 31.9556H8.04346C5.83432 31.9556 4.04346 30.1647 4.04346 27.9556V9.10071C4.04346 6.89157 5.83432 5.10071 8.04346 5.10071H34.0426C36.2517 5.10071 38.0426 6.89157 38.0426 9.10071V16.389C39.1074 16.6672 40.1147 17.088 41.0426 17.6299V9.10071C41.0426 5.23472 37.9086 2.10071 34.0426 2.10071Z" fill="url(#paint1_linear_1216_13643)"/>
<path fill-rule="evenodd" clip-rule="evenodd" d="M34.0426 2.10071H8.04346C4.17746 2.10071 1.04346 5.23471 1.04346 9.10071V27.9556C1.04346 31.8216 4.17746 34.9556 8.04346 34.9556H25.2208C24.5701 34.0423 24.0441 33.034 23.6677 31.9556H8.04346C5.83432 31.9556 4.04346 30.1647 4.04346 27.9556V9.10071C4.04346 6.89157 5.83432 5.10071 8.04346 5.10071H34.0426C36.2517 5.10071 38.0426 6.89157 38.0426 9.10071V16.389C39.1074 16.6672 40.1147 17.088 41.0426 17.6299V9.10071C41.0426 5.23472 37.9086 2.10071 34.0426 2.10071Z" fill="url(#paint2_linear_1216_13643)" fill-opacity="0.2"/>
</g>
<path fill-rule="evenodd" clip-rule="evenodd" d="M11 8C8.79086 8 7 9.79086 7 12V25C7 27.2091 8.79086 29 11 29H23.0147C23.005 28.8012 23 28.6012 23 28.4C23 21.7726 28.3726 16.4 35 16.4V12C35 9.79086 33.2091 8 31 8H11Z" fill="url(#paint3_linear_1216_13643)"/>
<rect opacity="0.8" x="11" y="13" width="6" height="2" rx="1" fill="white"/>
<rect opacity="0.8" x="11" y="17" width="14" height="2" rx="1" fill="white"/>
<defs>
<linearGradient id="paint0_linear_1216_13643" x1="47.3875" y1="40.0536" x2="25.8253" y2="21.4821" gradientUnits="userSpaceOnUse">
<stop stop-color="#645AFF"/>
<stop offset="0.60257" stop-color="#E40C5B"/>
<stop offset="1" stop-color="#FF4C3B"/>
</linearGradient>
<linearGradient id="paint1_linear_1216_13643" x1="57.2506" y1="48.1523" x2="13.9731" y2="-16.373" gradientUnits="userSpaceOnUse">
<stop stop-color="#645AFF"/>
<stop offset="0.520746" stop-color="#E40C5B"/>
<stop offset="0.985908" stop-color="#FF4C3B"/>
</linearGradient>
<linearGradient id="paint2_linear_1216_13643" x1="22.4263" y1="-11.3972" x2="72.5822" y2="2.0184" gradientUnits="userSpaceOnUse">
<stop stop-color="white"/>
<stop offset="1" stop-color="white" stop-opacity="0"/>
</linearGradient>
<linearGradient id="paint3_linear_1216_13643" x1="21" y1="8" x2="21.1742" y2="30.028" gradientUnits="userSpaceOnUse">
<stop stop-color="#645AFF"/>
<stop offset="1" stop-color="#645AFF" stop-opacity="0"/>
</linearGradient>
</defs>
</svg>
