<svg width="18" height="16" viewBox="0 0 18 16" fill="none" xmlns="http://www.w3.org/2000/svg">
<path d="M1.63413 5.68475L16.3663 5.68475C16.6225 5.68475 16.8535 5.5315 16.9517 5.29626C17.0499 5.06103 16.9954 4.79017 16.8143 4.61029L13.5141 1.332C13.2666 1.08611 12.8656 1.08611 12.6181 1.332C12.3706 1.57766 12.3706 1.97638 12.6181 2.22205L14.8367 4.42589L1.63413 4.42589C1.28429 4.42589 1.00049 4.70762 1.00049 5.05532C1.00049 5.40303 1.28429 5.68475 1.63413 5.68475Z" fill="#645AFF" stroke="#645AFF"/>
<path opacity="0.496443" d="M16.3658 10.0643L1.63362 10.0643C1.37737 10.0643 1.14635 10.2177 1.04825 10.4528C0.950172 10.688 1.00439 10.9588 1.18563 11.1388L4.48585 14.4171C4.60961 14.54 4.77174 14.6015 4.93386 14.6015C5.09599 14.6015 5.25811 14.54 5.38188 14.4171C5.6294 14.1714 5.6294 13.7727 5.38188 13.527L3.16329 11.3232L16.3659 11.3232C16.7157 11.3232 16.9995 11.0415 16.9995 10.6938C16.9995 10.3461 16.7157 10.0643 16.3658 10.0643Z" fill="#645AFF" stroke="#645AFF"/>
</svg>
